<svg width="220" height="60" viewBox="0 0 220 60" fill="none" xmlns="http://www.w3.org/2000/svg">
<rect width="220" height="60" fill="#006AF8"/>
<path d="M41.7229 22.4571C42.4454 21.7398 42.4454 20.5716 41.7229 19.8528L39.0692 17.1974L39.0734 17.2002L35.4549 13.585C35.065 13.2066 34.5421 12.9966 33.9989 13C33.4558 13.0035 32.9357 13.2202 32.5505 13.6034L17.6033 28.5534C17.4121 28.7435 17.2604 28.9696 17.1568 29.2186C17.0533 29.4676 17 29.7347 17 30.0044C17 30.2741 17.0533 30.5412 17.1568 30.7902C17.2604 31.0393 17.4121 31.2653 17.6033 31.4555L32.5491 46.3983C32.9343 46.7836 33.4567 47 34.0013 47C34.5459 47 35.0683 46.7836 35.4535 46.3983L41.72 40.132C41.8915 39.9611 42.0275 39.7581 42.1203 39.5345C42.2131 39.3109 42.2609 39.0712 42.2609 38.8291C42.2609 38.587 42.2131 38.3472 42.1203 38.1237C42.0275 37.9001 41.8915 37.697 41.72 37.5262C41.3736 37.1816 40.905 36.9882 40.4166 36.9882C39.9281 36.9882 39.4595 37.1816 39.1131 37.5262L34.3668 42.2812C34.3212 42.328 34.2666 42.3652 34.2064 42.3906C34.1462 42.4159 34.0815 42.429 34.0162 42.429C33.9508 42.429 33.8862 42.4159 33.8259 42.3906C33.7657 42.3652 33.7112 42.328 33.6655 42.2812L21.7262 30.3454C21.6794 30.2997 21.6423 30.2451 21.6169 30.1849C21.5916 30.1246 21.5785 30.0599 21.5785 29.9945C21.5785 29.9291 21.5916 29.8644 21.6169 29.8041C21.6423 29.7439 21.6794 29.6893 21.7262 29.6436L33.6613 17.7063L33.7109 17.6652C33.805 17.5891 33.9243 17.5512 34.045 17.5591C34.1658 17.567 34.2791 17.62 34.3626 17.7078L39.1145 22.4571C39.2856 22.6288 39.4889 22.765 39.7127 22.858C39.9365 22.9509 40.1764 22.9988 40.4187 22.9988C40.661 22.9988 40.9009 22.9509 41.1247 22.858C41.3485 22.765 41.5518 22.6288 41.7229 22.4571ZM30.0428 30.0789C30.0428 31.149 30.4679 32.1752 31.2246 32.9319C31.9813 33.6886 33.0076 34.1137 34.0778 34.1137C35.148 34.1137 36.1743 33.6886 36.931 32.9319C37.6877 32.1752 38.1128 31.149 38.1128 30.0789C38.1128 29.0087 37.6877 27.9825 36.931 27.2258C36.1743 26.4691 35.148 26.044 34.0778 26.044C33.0076 26.044 31.9813 26.4691 31.2246 27.2258C30.4679 27.9825 30.0428 29.0087 30.0428 30.0789ZM50.3979 28.6129L45.731 23.9642C45.3843 23.6191 44.9149 23.4257 44.4259 23.4265C43.9369 23.4273 43.4682 23.6222 43.1226 23.9684C42.9512 24.1393 42.8152 24.3423 42.7224 24.5659C42.6295 24.7895 42.5818 25.0292 42.5818 25.2713C42.5818 25.5134 42.6295 25.7532 42.7224 25.9768C42.8152 26.2003 42.9512 26.4034 43.1226 26.5742L46.2736 29.7244C46.472 29.9215 46.472 30.2291 46.2736 30.4262L43.168 33.531C42.9968 33.7018 42.8609 33.9048 42.7682 34.1283C42.6755 34.3517 42.6278 34.5913 42.6278 34.8332C42.6278 35.0751 42.6755 35.3147 42.7682 35.5382C42.8609 35.7616 42.9968 35.9646 43.168 36.1354C43.5144 36.48 43.983 36.6734 44.4714 36.6734C44.9599 36.6734 45.4285 36.48 45.7749 36.1354L50.3993 31.5136C50.59 31.3231 50.7412 31.0968 50.8443 30.8477C50.9473 30.5986 51.0003 30.3316 51 30.062C50.9997 29.7923 50.9463 29.5254 50.8427 29.2765C50.7392 29.0276 50.5875 28.8016 50.3965 28.6115" fill="white"/>
<path d="M65.5256 38.5H61.571L67.5966 21.0455H72.3523L78.3693 38.5H74.4148L70.0426 25.0341H69.9062L65.5256 38.5ZM65.2784 31.6392H74.6193V34.5199H65.2784V31.6392ZM95.0696 21.0455V38.5H91.8821L84.2884 27.5142H84.1605V38.5H80.4702V21.0455H83.7088L91.2429 32.0227H91.3963V21.0455H95.0696ZM97.4538 24.0881V21.0455H111.789V24.0881H106.445V38.5H102.798V24.0881H97.4538ZM120.337 38.5H114.15V21.0455H120.388C122.144 21.0455 123.656 21.3949 124.923 22.0938C126.19 22.7869 127.164 23.7841 127.846 25.0852C128.533 26.3864 128.877 27.9432 128.877 29.7557C128.877 31.5739 128.533 33.1364 127.846 34.4432C127.164 35.75 126.184 36.7528 124.906 37.4517C123.633 38.1506 122.11 38.5 120.337 38.5ZM117.84 35.3381H120.184C121.275 35.3381 122.192 35.1449 122.937 34.7585C123.687 34.3665 124.249 33.7614 124.624 32.9432C125.005 32.1193 125.195 31.0568 125.195 29.7557C125.195 28.4659 125.005 27.4119 124.624 26.5938C124.249 25.7756 123.69 25.1733 122.945 24.7869C122.201 24.4006 121.283 24.2074 120.192 24.2074H117.84V35.3381ZM131.611 38.5V21.0455H143.372V24.0881H135.301V28.2472H142.767V31.2898H135.301V35.4574H143.406V38.5H131.611ZM155.775 26.0653C155.707 25.3778 155.414 24.8437 154.897 24.4631C154.38 24.0824 153.678 23.892 152.792 23.892C152.19 23.892 151.681 23.9773 151.266 24.1477C150.852 24.3125 150.533 24.5426 150.312 24.8381C150.096 25.1335 149.988 25.4688 149.988 25.8438C149.977 26.1562 150.042 26.429 150.184 26.6619C150.332 26.8949 150.533 27.0966 150.789 27.267C151.045 27.4318 151.34 27.5767 151.675 27.7017C152.011 27.821 152.369 27.9233 152.749 28.0085L154.317 28.3835C155.079 28.554 155.778 28.7812 156.414 29.0653C157.05 29.3494 157.602 29.6989 158.067 30.1136C158.533 30.5284 158.894 31.017 159.15 31.5795C159.411 32.142 159.545 32.7869 159.55 33.5142C159.545 34.5824 159.272 35.5085 158.732 36.2926C158.198 37.071 157.425 37.6761 156.414 38.108C155.408 38.5341 154.195 38.7472 152.775 38.7472C151.366 38.7472 150.138 38.5312 149.093 38.0994C148.053 37.6676 147.241 37.0284 146.656 36.1818C146.076 35.3295 145.772 34.2756 145.744 33.0199H149.315C149.354 33.6051 149.522 34.0937 149.817 34.4858C150.119 34.8722 150.519 35.1648 151.019 35.3636C151.525 35.5568 152.096 35.6534 152.732 35.6534C153.357 35.6534 153.9 35.5625 154.36 35.3807C154.826 35.1989 155.187 34.946 155.442 34.6222C155.698 34.2983 155.826 33.9261 155.826 33.5057C155.826 33.1136 155.71 32.7841 155.477 32.517C155.249 32.25 154.914 32.0227 154.471 31.8352C154.033 31.6477 153.496 31.4773 152.86 31.3239L150.96 30.8466C149.488 30.4886 148.326 29.929 147.474 29.1676C146.621 28.4062 146.198 27.3807 146.204 26.0909C146.198 25.0341 146.479 24.1108 147.048 23.321C147.621 22.5312 148.408 21.9148 149.408 21.4716C150.408 21.0284 151.545 20.8068 152.817 20.8068C154.113 20.8068 155.244 21.0284 156.21 21.4716C157.181 21.9148 157.937 22.5312 158.477 23.321C159.016 24.1108 159.295 25.0256 159.312 26.0653H155.775ZM165.723 21.0455V38.5H162.033V21.0455H165.723ZM180.333 26.6875C180.214 26.2727 180.046 25.9062 179.83 25.5881C179.614 25.2642 179.35 24.9915 179.038 24.7699C178.731 24.5426 178.379 24.3693 177.981 24.25C177.589 24.1307 177.154 24.071 176.677 24.071C175.785 24.071 175.001 24.2926 174.325 24.7358C173.654 25.179 173.131 25.8239 172.756 26.6705C172.381 27.5114 172.194 28.5398 172.194 29.7557C172.194 30.9716 172.379 32.0057 172.748 32.858C173.117 33.7102 173.64 34.3608 174.316 34.8097C174.992 35.2528 175.79 35.4744 176.711 35.4744C177.546 35.4744 178.259 35.3267 178.85 35.0312C179.447 34.7301 179.901 34.3068 180.214 33.7614C180.532 33.2159 180.691 32.571 180.691 31.8267L181.441 31.9375H176.941V29.1591H184.245V31.358C184.245 32.892 183.921 34.2102 183.273 35.3125C182.626 36.4091 181.734 37.2557 180.597 37.8523C179.461 38.4432 178.16 38.7386 176.694 38.7386C175.058 38.7386 173.62 38.3778 172.381 37.6562C171.143 36.929 170.177 35.8977 169.484 34.5625C168.796 33.2216 168.452 31.6307 168.452 29.7898C168.452 28.375 168.657 27.1136 169.066 26.0057C169.481 24.892 170.06 23.9489 170.805 23.1761C171.549 22.4034 172.415 21.8153 173.404 21.4119C174.393 21.0085 175.464 20.8068 176.617 20.8068C177.606 20.8068 178.526 20.9517 179.379 21.2415C180.231 21.5256 180.987 21.929 181.646 22.4517C182.31 22.9744 182.853 23.5966 183.273 24.3182C183.694 25.0341 183.964 25.8239 184.083 26.6875H180.333ZM201.616 21.0455V38.5H198.429L190.835 27.5142H190.707V38.5H187.017V21.0455H190.256L197.79 32.0227H197.943V21.0455H201.616Z" fill="white"/>
</svg>
