<svg width="298" height="60" viewBox="0 0 298 60" fill="none" xmlns="http://www.w3.org/2000/svg">
<rect width="298" height="60" fill="#9F2D44"/>
<g clip-path="url(#clip0_10_209)">
<path d="M34 12C29.2261 12 24.6477 13.8964 21.2721 17.2721C17.8964 20.6477 16 25.2261 16 30C16 34.7739 17.8964 39.3523 21.2721 42.7279C24.6477 46.1036 29.2261 48 34 48C38.7739 48 43.3523 46.1036 46.7279 42.7279C50.1036 39.3523 52 34.7739 52 30C52 25.2261 50.1036 20.6477 46.7279 17.2721C43.3523 13.8964 38.7739 12 34 12ZM32.812 19.9605C36.1 19.923 39.361 21.6615 40.957 24.9165C42.3205 27.6945 42.274 30.3315 40.81 33.384C40.0945 34.8765 40.0795 34.974 40.4485 35.751C40.7695 36.429 41.539 36.9195 42.28 36.9195C42.961 36.9195 44.005 36.0405 44.158 35.3385C44.308 34.6575 43.8685 33.6615 43.2475 33.273C43.048 33.1501 42.8515 33.0226 42.658 32.8905C42.4645 32.7405 43.288 32.3205 43.7695 32.3205C44.8 32.3205 45.64 33.1095 45.832 34.2555C45.9145 34.755 46.033 34.8885 46.492 35.0085C47.7805 35.3415 48.4375 37.185 47.6245 38.1825C47.2945 38.5875 47.2795 38.589 47.167 38.2455C46.7665 37.044 46.168 36.5655 45.0625 36.5655C44.584 36.5655 44.2045 36.7575 43.4155 37.3995C41.9065 38.6295 40.6165 39.354 39.055 39.8475C37.141 40.4235 34.927 40.5645 32.926 40.0815C29.683 39.435 26.578 36.9165 25.048 33.696C23.137 29.673 23.7025 25.5 26.5495 22.6155C27.3677 21.7831 28.3419 21.1202 29.4165 20.6646C30.491 20.209 31.6449 19.9698 32.812 19.9605Z" fill="white"/>
</g>
<path d="M65.5256 38.5H61.571L67.5966 21.0455H72.3523L78.3693 38.5H74.4148L70.0426 25.0341H69.9062L65.5256 38.5ZM65.2784 31.6392H74.6193V34.5199H65.2784V31.6392ZM80.4702 38.5V21.0455H87.3565C88.6804 21.0455 89.8082 21.2983 90.7401 21.804C91.6719 22.304 92.3821 23 92.8707 23.892C93.3651 24.7784 93.6122 25.8011 93.6122 26.9602C93.6122 28.1193 93.3622 29.142 92.8622 30.0284C92.3622 30.9148 91.6378 31.6051 90.6889 32.0994C89.7457 32.5937 88.6037 32.8409 87.2628 32.8409H82.8736V29.8835H86.6662C87.3764 29.8835 87.9616 29.7614 88.4219 29.517C88.8878 29.267 89.2344 28.9233 89.4616 28.4858C89.6946 28.0426 89.8111 27.5341 89.8111 26.9602C89.8111 26.3807 89.6946 25.875 89.4616 25.4432C89.2344 25.0057 88.8878 24.6676 88.4219 24.429C87.956 24.1847 87.3651 24.0625 86.6491 24.0625H84.1605V38.5H80.4702ZM97.0021 38.5H93.0476L99.0732 21.0455H103.829L109.846 38.5H105.891L101.519 25.0341H101.383L97.0021 38.5ZM96.755 31.6392H106.096V34.5199H96.755V31.6392ZM126.527 27.1562H122.794C122.726 26.6733 122.587 26.2443 122.376 25.8693C122.166 25.4886 121.896 25.1648 121.567 24.8977C121.237 24.6307 120.857 24.4261 120.425 24.2841C119.999 24.142 119.536 24.071 119.036 24.071C118.132 24.071 117.345 24.2955 116.675 24.7443C116.004 25.1875 115.484 25.8352 115.115 26.6875C114.746 27.5341 114.561 28.5625 114.561 29.7727C114.561 31.017 114.746 32.0625 115.115 32.9091C115.49 33.7557 116.013 34.3949 116.683 34.8267C117.354 35.2585 118.129 35.4744 119.01 35.4744C119.504 35.4744 119.962 35.4091 120.382 35.2784C120.808 35.1477 121.186 34.9574 121.516 34.7074C121.845 34.4517 122.118 34.142 122.334 33.7784C122.555 33.4148 122.709 33 122.794 32.5341L126.527 32.5511C126.43 33.3523 126.189 34.125 125.803 34.8693C125.422 35.608 124.908 36.2699 124.26 36.8551C123.618 37.4347 122.851 37.8949 121.959 38.2358C121.072 38.571 120.07 38.7386 118.95 38.7386C117.393 38.7386 116.001 38.3864 114.774 37.6818C113.553 36.9773 112.587 35.9574 111.876 34.6222C111.172 33.2869 110.82 31.6705 110.82 29.7727C110.82 27.8693 111.178 26.25 111.893 24.9148C112.609 23.5795 113.581 22.5625 114.808 21.8636C116.036 21.1591 117.416 20.8068 118.95 20.8068C119.962 20.8068 120.899 20.9489 121.763 21.233C122.632 21.517 123.402 21.9318 124.072 22.4773C124.743 23.017 125.288 23.679 125.709 24.4631C126.135 25.2472 126.408 26.1449 126.527 27.1562ZM129.173 38.5V21.0455H132.864V28.2472H140.355V21.0455H144.037V38.5H140.355V31.2898H132.864V38.5H129.173ZM147.08 38.5V21.0455H158.841V24.0881H150.77V28.2472H158.236V31.2898H150.77V35.4574H158.875V38.5H147.08ZM167.33 38.5V21.0455H179.091V24.0881H171.02V28.2472H178.486V31.2898H171.02V35.4574H179.125V38.5H167.33ZM197.425 27.1562H193.692C193.624 26.6733 193.485 26.2443 193.275 25.8693C193.065 25.4886 192.795 25.1648 192.465 24.8977C192.136 24.6307 191.755 24.4261 191.323 24.2841C190.897 24.142 190.434 24.071 189.934 24.071C189.031 24.071 188.244 24.2955 187.573 24.7443C186.903 25.1875 186.383 25.8352 186.013 26.6875C185.644 27.5341 185.46 28.5625 185.46 29.7727C185.46 31.017 185.644 32.0625 186.013 32.9091C186.388 33.7557 186.911 34.3949 187.582 34.8267C188.252 35.2585 189.028 35.4744 189.908 35.4744C190.403 35.4744 190.86 35.4091 191.281 35.2784C191.707 35.1477 192.085 34.9574 192.414 34.7074C192.744 34.4517 193.016 34.142 193.232 33.7784C193.454 33.4148 193.607 33 193.692 32.5341L197.425 32.5511C197.329 33.3523 197.087 34.125 196.701 34.8693C196.32 35.608 195.806 36.2699 195.158 36.8551C194.516 37.4347 193.749 37.8949 192.857 38.2358C191.971 38.571 190.968 38.7386 189.849 38.7386C188.292 38.7386 186.9 38.3864 185.673 37.6818C184.451 36.9773 183.485 35.9574 182.775 34.6222C182.07 33.2869 181.718 31.6705 181.718 29.7727C181.718 27.8693 182.076 26.25 182.792 24.9148C183.508 23.5795 184.479 22.5625 185.707 21.8636C186.934 21.1591 188.315 20.8068 189.849 20.8068C190.86 20.8068 191.798 20.9489 192.661 21.233C193.531 21.517 194.3 21.9318 194.971 22.4773C195.641 23.017 196.187 23.679 196.607 24.4631C197.033 25.2472 197.306 26.1449 197.425 27.1562ZM200.072 38.5V21.0455H203.762V28.2472H211.254V21.0455H214.935V38.5H211.254V31.2898H203.762V38.5H200.072ZM220.987 38.5H217.032L223.058 21.0455H227.813L233.83 38.5H229.876L225.504 25.0341H225.367L220.987 38.5ZM220.739 31.6392H230.08V34.5199H220.739V31.6392ZM235.931 38.5V21.0455H242.817C244.136 21.0455 245.261 21.2812 246.192 21.7528C247.13 22.2187 247.843 22.8807 248.332 23.7386C248.826 24.5909 249.073 25.5937 249.073 26.7472C249.073 27.9062 248.823 28.9034 248.323 29.7386C247.823 30.5682 247.099 31.2045 246.15 31.6477C245.207 32.0909 244.065 32.3125 242.724 32.3125H238.113V29.3466H242.127C242.832 29.3466 243.417 29.25 243.883 29.0568C244.349 28.8636 244.695 28.5739 244.923 28.1875C245.156 27.8011 245.272 27.321 245.272 26.7472C245.272 26.1676 245.156 25.679 244.923 25.2812C244.695 24.8835 244.346 24.5824 243.874 24.3778C243.408 24.1676 242.82 24.0625 242.11 24.0625H239.621V38.5H235.931ZM245.357 30.5568L249.695 38.5H245.621L241.377 30.5568H245.357ZM251.016 24.0881V21.0455H265.352V24.0881H260.008V38.5H256.36V24.0881H251.016ZM277.181 26.0653C277.113 25.3778 276.82 24.8437 276.303 24.4631C275.786 24.0824 275.085 23.892 274.198 23.892C273.596 23.892 273.087 23.9773 272.673 24.1477C272.258 24.3125 271.94 24.5426 271.718 24.8381C271.502 25.1335 271.394 25.4688 271.394 25.8438C271.383 26.1562 271.448 26.429 271.59 26.6619C271.738 26.8949 271.94 27.0966 272.195 27.267C272.451 27.4318 272.746 27.5767 273.082 27.7017C273.417 27.821 273.775 27.9233 274.156 28.0085L275.724 28.3835C276.485 28.554 277.184 28.7812 277.82 29.0653C278.457 29.3494 279.008 29.6989 279.474 30.1136C279.94 30.5284 280.3 31.017 280.556 31.5795C280.817 32.142 280.951 32.7869 280.957 33.5142C280.951 34.5824 280.678 35.5085 280.138 36.2926C279.604 37.071 278.832 37.6761 277.82 38.108C276.815 38.5341 275.602 38.7472 274.181 38.7472C272.772 38.7472 271.545 38.5312 270.499 38.0994C269.46 37.6676 268.647 37.0284 268.062 36.1818C267.482 35.3295 267.178 34.2756 267.15 33.0199H270.721C270.761 33.6051 270.928 34.0937 271.224 34.4858C271.525 34.8722 271.925 35.1648 272.425 35.3636C272.931 35.5568 273.502 35.6534 274.138 35.6534C274.763 35.6534 275.306 35.5625 275.766 35.3807C276.232 35.1989 276.593 34.946 276.849 34.6222C277.104 34.2983 277.232 33.9261 277.232 33.5057C277.232 33.1136 277.116 32.7841 276.883 32.517C276.656 32.25 276.32 32.0227 275.877 31.8352C275.44 31.6477 274.903 31.4773 274.266 31.3239L272.366 30.8466C270.894 30.4886 269.732 29.929 268.88 29.1676C268.028 28.4062 267.604 27.3807 267.61 26.0909C267.604 25.0341 267.886 24.1108 268.454 23.321C269.028 22.5312 269.815 21.9148 270.815 21.4716C271.815 21.0284 272.951 20.8068 274.224 20.8068C275.519 20.8068 276.65 21.0284 277.616 21.4716C278.587 21.9148 279.343 22.5312 279.883 23.321C280.423 24.1108 280.701 25.0256 280.718 26.0653H277.181Z" fill="white"/>
<defs>
<clipPath id="clip0_10_209">
<rect width="36" height="36" fill="white" transform="translate(16 12)"/>
</clipPath>
</defs>
</svg>
