<svg width="227" height="60" viewBox="0 0 227 60" fill="none" xmlns="http://www.w3.org/2000/svg">
<rect width="227" height="60" fill="#4B376E"/>
<path fill-rule="evenodd" clip-rule="evenodd" d="M23.2698 15.9167C21.2719 15.9167 19.7946 17.6652 19.8617 19.5596C19.9244 21.3825 19.8427 23.7406 19.2492 25.6642C18.6512 27.5921 17.645 28.8142 16 28.9717V30.7436C17.645 30.8996 18.6527 32.1217 19.2477 34.0511C19.8427 35.9746 19.9244 38.3327 19.8602 40.1542C19.7946 42.05 21.2719 43.7986 23.2698 43.7986H43.7331C45.731 43.7986 47.2083 42.05 47.1413 40.1542C47.0785 38.3327 47.1602 35.9746 47.7538 34.0511C48.3502 32.1217 49.355 30.9011 51 30.7436V28.9717C49.355 28.8142 48.3502 27.5921 47.7538 25.6642C47.1602 23.7392 47.0785 21.3811 47.1413 19.5596C47.2083 17.6638 45.7296 15.9167 43.7331 15.9167H23.2698ZM39.7271 33.0798C39.7271 35.6902 37.7802 37.2725 34.55 37.2725H29.0506C28.8932 37.2725 28.7422 37.21 28.6309 37.0987C28.5196 36.9874 28.4571 36.8364 28.4571 36.679V23.0348C28.4575 22.8776 28.5202 22.7271 28.6314 22.6161C28.7427 22.5051 28.8935 22.4427 29.0506 22.4427H34.5194C37.2129 22.4427 38.9819 23.9011 38.9819 26.1425C38.9819 27.7146 37.7919 29.1219 36.2767 29.3698V29.4515C38.3402 29.6775 39.7271 31.1067 39.7271 33.0798ZM33.9521 24.3225H30.8167V28.7529H33.4577C35.4994 28.7529 36.6252 27.9304 36.6252 26.4604C36.6252 25.0838 35.6569 24.3225 33.9521 24.3225ZM30.8167 30.5102V35.3913H34.0688C36.1935 35.3913 37.3208 34.5381 37.3208 32.9354C37.3208 31.3313 36.1629 30.5102 33.9317 30.5102H30.8167Z" fill="white"/>
<path d="M62.517 38.5V21.0455H69.5057C70.7898 21.0455 71.8608 21.2358 72.7188 21.6165C73.5767 21.9972 74.2216 22.5256 74.6534 23.2017C75.0852 23.8722 75.3011 24.6449 75.3011 25.5199C75.3011 26.2017 75.1648 26.8011 74.892 27.3182C74.6193 27.8295 74.2443 28.25 73.767 28.5795C73.2955 28.9034 72.7557 29.1335 72.1477 29.2699V29.4403C72.8125 29.4687 73.4347 29.6562 74.0142 30.0028C74.5994 30.3494 75.0739 30.8352 75.4375 31.4602C75.8011 32.0795 75.983 32.8182 75.983 33.6761C75.983 34.6023 75.7528 35.429 75.2926 36.1562C74.8381 36.8778 74.1648 37.4489 73.2727 37.8693C72.3807 38.2898 71.2813 38.5 69.9744 38.5H62.517ZM66.2074 35.483H69.2159C70.2443 35.483 70.9943 35.2869 71.4659 34.8949C71.9375 34.4972 72.1733 33.9687 72.1733 33.3097C72.1733 32.8267 72.0568 32.4006 71.8239 32.0312C71.5909 31.6619 71.2585 31.3722 70.8267 31.1619C70.4006 30.9517 69.892 30.8466 69.3011 30.8466H66.2074V35.483ZM66.2074 28.3494H68.9432C69.4489 28.3494 69.8977 28.2614 70.2898 28.0852C70.6875 27.9034 71 27.6477 71.2273 27.3182C71.4602 26.9886 71.5767 26.5938 71.5767 26.1335C71.5767 25.5028 71.3523 24.9943 70.9034 24.608C70.4602 24.2216 69.8295 24.0284 69.0114 24.0284H66.2074V28.3494ZM94.424 29.7727C94.424 31.6761 94.0632 33.2955 93.3416 34.6307C92.6257 35.9659 91.6484 36.9858 90.4098 37.6903C89.1768 38.3892 87.7905 38.7386 86.2507 38.7386C84.6996 38.7386 83.3075 38.3864 82.0746 37.6818C80.8416 36.9773 79.8672 35.9574 79.1513 34.6222C78.4354 33.2869 78.0774 31.6705 78.0774 29.7727C78.0774 27.8693 78.4354 26.25 79.1513 24.9148C79.8672 23.5795 80.8416 22.5625 82.0746 21.8636C83.3075 21.1591 84.6996 20.8068 86.2507 20.8068C87.7905 20.8068 89.1768 21.1591 90.4098 21.8636C91.6484 22.5625 92.6257 23.5795 93.3416 24.9148C94.0632 26.25 94.424 27.8693 94.424 29.7727ZM90.6825 29.7727C90.6825 28.5398 90.4979 27.5 90.1286 26.6534C89.7649 25.8068 89.2507 25.1648 88.5859 24.7273C87.9212 24.2898 87.1428 24.071 86.2507 24.071C85.3587 24.071 84.5803 24.2898 83.9155 24.7273C83.2507 25.1648 82.7337 25.8068 82.3643 26.6534C82.0007 27.5 81.8189 28.5398 81.8189 29.7727C81.8189 31.0057 82.0007 32.0455 82.3643 32.892C82.7337 33.7386 83.2507 34.3807 83.9155 34.8182C84.5803 35.2557 85.3587 35.4744 86.2507 35.4744C87.1428 35.4744 87.9212 35.2557 88.5859 34.8182C89.2507 34.3807 89.7649 33.7386 90.1286 32.892C90.4979 32.0455 90.6825 31.0057 90.6825 29.7727ZM113.197 29.7727C113.197 31.6761 112.837 33.2955 112.115 34.6307C111.399 35.9659 110.422 36.9858 109.183 37.6903C107.95 38.3892 106.564 38.7386 105.024 38.7386C103.473 38.7386 102.081 38.3864 100.848 37.6818C99.6151 36.9773 98.6406 35.9574 97.9247 34.6222C97.2088 33.2869 96.8509 31.6705 96.8509 29.7727C96.8509 27.8693 97.2088 26.25 97.9247 24.9148C98.6406 23.5795 99.6151 22.5625 100.848 21.8636C102.081 21.1591 103.473 20.8068 105.024 20.8068C106.564 20.8068 107.95 21.1591 109.183 21.8636C110.422 22.5625 111.399 23.5795 112.115 24.9148C112.837 26.25 113.197 27.8693 113.197 29.7727ZM109.456 29.7727C109.456 28.5398 109.271 27.5 108.902 26.6534C108.538 25.8068 108.024 25.1648 107.359 24.7273C106.695 24.2898 105.916 24.071 105.024 24.071C104.132 24.071 103.354 24.2898 102.689 24.7273C102.024 25.1648 101.507 25.8068 101.138 26.6534C100.774 27.5 100.592 28.5398 100.592 29.7727C100.592 31.0057 100.774 32.0455 101.138 32.892C101.507 33.7386 102.024 34.3807 102.689 34.8182C103.354 35.2557 104.132 35.4744 105.024 35.4744C105.916 35.4744 106.695 35.2557 107.359 34.8182C108.024 34.3807 108.538 33.7386 108.902 32.892C109.271 32.0455 109.456 31.0057 109.456 29.7727ZM114.469 24.0881V21.0455H128.805V24.0881H123.461V38.5H119.813V24.0881H114.469ZM140.634 26.0653C140.566 25.3778 140.273 24.8437 139.756 24.4631C139.239 24.0824 138.538 23.892 137.651 23.892C137.049 23.892 136.54 23.9773 136.126 24.1477C135.711 24.3125 135.393 24.5426 135.171 24.8381C134.955 25.1335 134.847 25.4688 134.847 25.8438C134.836 26.1562 134.901 26.429 135.043 26.6619C135.191 26.8949 135.393 27.0966 135.648 27.267C135.904 27.4318 136.2 27.5767 136.535 27.7017C136.87 27.821 137.228 27.9233 137.609 28.0085L139.177 28.3835C139.938 28.554 140.637 28.7812 141.273 29.0653C141.91 29.3494 142.461 29.6989 142.927 30.1136C143.393 30.5284 143.754 31.017 144.009 31.5795C144.271 32.142 144.404 32.7869 144.41 33.5142C144.404 34.5824 144.131 35.5085 143.592 36.2926C143.058 37.071 142.285 37.6761 141.273 38.108C140.268 38.5341 139.055 38.7472 137.634 38.7472C136.225 38.7472 134.998 38.5312 133.952 38.0994C132.913 37.6676 132.1 37.0284 131.515 36.1818C130.935 35.3295 130.631 34.2756 130.603 33.0199H134.174C134.214 33.6051 134.381 34.0937 134.677 34.4858C134.978 34.8722 135.379 35.1648 135.879 35.3636C136.384 35.5568 136.955 35.6534 137.592 35.6534C138.217 35.6534 138.759 35.5625 139.219 35.3807C139.685 35.1989 140.046 34.946 140.302 34.6222C140.558 34.2983 140.685 33.9261 140.685 33.5057C140.685 33.1136 140.569 32.7841 140.336 32.517C140.109 32.25 139.773 32.0227 139.33 31.8352C138.893 31.6477 138.356 31.4773 137.719 31.3239L135.819 30.8466C134.347 30.4886 133.185 29.929 132.333 29.1676C131.481 28.4062 131.058 27.3807 131.063 26.0909C131.058 25.0341 131.339 24.1108 131.907 23.321C132.481 22.5312 133.268 21.9148 134.268 21.4716C135.268 21.0284 136.404 20.8068 137.677 20.8068C138.972 20.8068 140.103 21.0284 141.069 21.4716C142.04 21.9148 142.796 22.5312 143.336 23.321C143.876 24.1108 144.154 25.0256 144.171 26.0653H140.634ZM146.227 24.0881V21.0455H160.562V24.0881H155.219V38.5H151.571V24.0881H146.227ZM162.923 38.5V21.0455H169.81C171.128 21.0455 172.253 21.2812 173.185 21.7528C174.122 22.2187 174.835 22.8807 175.324 23.7386C175.818 24.5909 176.065 25.5937 176.065 26.7472C176.065 27.9062 175.815 28.9034 175.315 29.7386C174.815 30.5682 174.091 31.2045 173.142 31.6477C172.199 32.0909 171.057 32.3125 169.716 32.3125H165.105V29.3466H169.119C169.824 29.3466 170.409 29.25 170.875 29.0568C171.341 28.8636 171.688 28.5739 171.915 28.1875C172.148 27.8011 172.264 27.321 172.264 26.7472C172.264 26.1676 172.148 25.679 171.915 25.2812C171.688 24.8835 171.338 24.5824 170.866 24.3778C170.401 24.1676 169.813 24.0625 169.102 24.0625H166.614V38.5H162.923ZM172.349 30.5568L176.688 38.5H172.614L168.369 30.5568H172.349ZM181.682 38.5H177.727L183.753 21.0455H188.509L194.526 38.5H190.571L186.199 25.0341H186.062L181.682 38.5ZM181.435 31.6392H190.776V34.5199H181.435V31.6392ZM196.626 38.5V21.0455H203.513C204.837 21.0455 205.964 21.2983 206.896 21.804C207.828 22.304 208.538 23 209.027 23.892C209.521 24.7784 209.768 25.8011 209.768 26.9602C209.768 28.1193 209.518 29.142 209.018 30.0284C208.518 30.9148 207.794 31.6051 206.845 32.0994C205.902 32.5937 204.76 32.8409 203.419 32.8409H199.03V29.8835H202.822C203.533 29.8835 204.118 29.7614 204.578 29.517C205.044 29.267 205.391 28.9233 205.618 28.4858C205.851 28.0426 205.967 27.5341 205.967 26.9602C205.967 26.3807 205.851 25.875 205.618 25.4432C205.391 25.0057 205.044 24.6676 204.578 24.429C204.112 24.1847 203.521 24.0625 202.805 24.0625H200.317V38.5H196.626Z" fill="white"/>
</svg>
