<svg width="143" height="60" viewBox="0 0 143 60" fill="none" xmlns="http://www.w3.org/2000/svg">
<rect width="143" height="60" fill="#1669AA"/>
<path d="M19.9375 16H47.0625L44.5954 43.8522L33.4703 47L22.4072 43.8509L19.9375 16ZM42.0121 21.7001L24.9879 21.6962L25.263 25.083L38.3412 25.0856L38.0118 28.5937H29.4351L29.7451 31.9172H37.7302L37.2575 36.4677L33.4987 37.5062L29.6805 36.46L29.4377 33.7346H26.0665L26.441 38.714L33.5 40.9137L40.4401 38.9374L42.0121 21.7001Z" fill="white"/>
<path d="M77.9176 27.1562H74.1847C74.1165 26.6733 73.9773 26.2443 73.767 25.8693C73.5568 25.4886 73.2869 25.1648 72.9574 24.8977C72.6278 24.6307 72.2472 24.4261 71.8153 24.2841C71.3892 24.142 70.9261 24.071 70.4261 24.071C69.5227 24.071 68.7358 24.2955 68.0653 24.7443C67.3949 25.1875 66.875 25.8352 66.5057 26.6875C66.1364 27.5341 65.9517 28.5625 65.9517 29.7727C65.9517 31.017 66.1364 32.0625 66.5057 32.9091C66.8807 33.7557 67.4034 34.3949 68.0739 34.8267C68.7443 35.2585 69.5199 35.4744 70.4006 35.4744C70.8949 35.4744 71.3523 35.4091 71.7727 35.2784C72.1989 35.1477 72.5767 34.9574 72.9062 34.7074C73.2358 34.4517 73.5085 34.142 73.7244 33.7784C73.946 33.4148 74.0994 33 74.1847 32.5341L77.9176 32.5511C77.821 33.3523 77.5795 34.125 77.1932 34.8693C76.8125 35.608 76.2983 36.2699 75.6506 36.8551C75.0085 37.4347 74.2415 37.8949 73.3494 38.2358C72.4631 38.571 71.4602 38.7386 70.3409 38.7386C68.7841 38.7386 67.392 38.3864 66.1648 37.6818C64.9432 36.9773 63.9773 35.9574 63.267 34.6222C62.5625 33.2869 62.2102 31.6705 62.2102 29.7727C62.2102 27.8693 62.5682 26.25 63.2841 24.9148C64 23.5795 64.9716 22.5625 66.1989 21.8636C67.4261 21.1591 68.8068 20.8068 70.3409 20.8068C71.3523 20.8068 72.2898 20.9489 73.1534 21.233C74.0227 21.517 74.7926 21.9318 75.4631 22.4773C76.1335 23.017 76.679 23.679 77.0994 24.4631C77.5256 25.2472 77.7983 26.1449 77.9176 27.1562ZM90.0327 26.0653C89.9645 25.3778 89.6719 24.8437 89.1548 24.4631C88.6378 24.0824 87.9361 23.892 87.0497 23.892C86.4474 23.892 85.9389 23.9773 85.5241 24.1477C85.1094 24.3125 84.7912 24.5426 84.5696 24.8381C84.3537 25.1335 84.2457 25.4688 84.2457 25.8438C84.2344 26.1562 84.2997 26.429 84.4418 26.6619C84.5895 26.8949 84.7912 27.0966 85.0469 27.267C85.3026 27.4318 85.598 27.5767 85.9332 27.7017C86.2685 27.821 86.6264 27.9233 87.0071 28.0085L88.5753 28.3835C89.3366 28.554 90.0355 28.7812 90.6719 29.0653C91.3082 29.3494 91.8594 29.6989 92.3253 30.1136C92.7912 30.5284 93.152 31.017 93.4077 31.5795C93.669 32.142 93.8026 32.7869 93.8082 33.5142C93.8026 34.5824 93.5298 35.5085 92.9901 36.2926C92.456 37.071 91.6832 37.6761 90.6719 38.108C89.6662 38.5341 88.4531 38.7472 87.0327 38.7472C85.6236 38.7472 84.3963 38.5312 83.3509 38.0994C82.3111 37.6676 81.4986 37.0284 80.9134 36.1818C80.3338 35.3295 80.0298 34.2756 80.0014 33.0199H83.5724C83.6122 33.6051 83.7798 34.0937 84.0753 34.4858C84.3764 34.8722 84.777 35.1648 85.277 35.3636C85.7827 35.5568 86.3537 35.6534 86.9901 35.6534C87.6151 35.6534 88.1577 35.5625 88.6179 35.3807C89.0838 35.1989 89.4446 34.946 89.7003 34.6222C89.956 34.2983 90.0838 33.9261 90.0838 33.5057C90.0838 33.1136 89.9673 32.7841 89.7344 32.517C89.5071 32.25 89.1719 32.0227 88.7287 31.8352C88.2912 31.6477 87.7543 31.4773 87.1179 31.3239L85.2173 30.8466C83.7457 30.4886 82.5838 29.929 81.7315 29.1676C80.8793 28.4062 80.456 27.3807 80.4616 26.0909C80.456 25.0341 80.7372 24.1108 81.3054 23.321C81.8793 22.5312 82.6662 21.9148 83.6662 21.4716C84.6662 21.0284 85.8026 20.8068 87.0753 20.8068C88.3707 20.8068 89.5014 21.0284 90.4673 21.4716C91.4389 21.9148 92.1946 22.5312 92.7344 23.321C93.2741 24.1108 93.5526 25.0256 93.5696 26.0653H90.0327ZM105.759 26.0653C105.691 25.3778 105.398 24.8437 104.881 24.4631C104.364 24.0824 103.663 23.892 102.776 23.892C102.174 23.892 101.665 23.9773 101.251 24.1477C100.836 24.3125 100.518 24.5426 100.296 24.8381C100.08 25.1335 99.9723 25.4688 99.9723 25.8438C99.9609 26.1562 100.026 26.429 100.168 26.6619C100.316 26.8949 100.518 27.0966 100.773 27.267C101.029 27.4318 101.325 27.5767 101.66 27.7017C101.995 27.821 102.353 27.9233 102.734 28.0085L104.302 28.3835C105.063 28.554 105.762 28.7812 106.398 29.0653C107.035 29.3494 107.586 29.6989 108.052 30.1136C108.518 30.5284 108.879 31.017 109.134 31.5795C109.396 32.142 109.529 32.7869 109.535 33.5142C109.529 34.5824 109.256 35.5085 108.717 36.2926C108.183 37.071 107.41 37.6761 106.398 38.108C105.393 38.5341 104.18 38.7472 102.759 38.7472C101.35 38.7472 100.123 38.5312 99.0774 38.0994C98.0376 37.6676 97.2251 37.0284 96.6399 36.1818C96.0604 35.3295 95.7564 34.2756 95.728 33.0199H99.299C99.3388 33.6051 99.5064 34.0937 99.8018 34.4858C100.103 34.8722 100.504 35.1648 101.004 35.3636C101.509 35.5568 102.08 35.6534 102.717 35.6534C103.342 35.6534 103.884 35.5625 104.344 35.3807C104.81 35.1989 105.171 34.946 105.427 34.6222C105.683 34.2983 105.81 33.9261 105.81 33.5057C105.81 33.1136 105.694 32.7841 105.461 32.517C105.234 32.25 104.898 32.0227 104.455 31.8352C104.018 31.6477 103.481 31.4773 102.844 31.3239L100.944 30.8466C99.4723 30.4886 98.3104 29.929 97.4581 29.1676C96.6058 28.4062 96.1825 27.3807 96.1882 26.0909C96.1825 25.0341 96.4638 24.1108 97.032 23.321C97.6058 22.5312 98.3928 21.9148 99.3928 21.4716C100.393 21.0284 101.529 20.8068 102.802 20.8068C104.097 20.8068 105.228 21.0284 106.194 21.4716C107.165 21.9148 107.921 22.5312 108.461 23.321C109.001 24.1108 109.279 25.0256 109.296 26.0653H105.759ZM118.366 38.7386C117.094 38.7386 115.96 38.5199 114.966 38.0824C113.977 37.6392 113.196 37.0312 112.622 36.2585C112.054 35.4801 111.761 34.5824 111.744 33.5653H115.46C115.483 33.9915 115.622 34.3665 115.878 34.6903C116.139 35.0085 116.486 35.2557 116.918 35.4318C117.349 35.608 117.835 35.696 118.375 35.696C118.938 35.696 119.435 35.5966 119.866 35.3977C120.298 35.1989 120.636 34.9233 120.881 34.571C121.125 34.2187 121.247 33.8125 121.247 33.3523C121.247 32.8864 121.116 32.4744 120.855 32.1165C120.599 31.7528 120.23 31.4687 119.747 31.2642C119.27 31.0597 118.702 30.9574 118.043 30.9574H116.415V28.2472H118.043C118.599 28.2472 119.091 28.1506 119.517 27.9574C119.949 27.7642 120.284 27.4972 120.523 27.1562C120.761 26.8097 120.881 26.4062 120.881 25.946C120.881 25.5085 120.776 25.125 120.565 24.7955C120.361 24.4602 120.071 24.1989 119.696 24.0114C119.327 23.8239 118.895 23.7301 118.401 23.7301C117.901 23.7301 117.443 23.821 117.028 24.0028C116.614 24.179 116.281 24.4318 116.031 24.7614C115.781 25.0909 115.648 25.4773 115.631 25.9205H112.094C112.111 24.9148 112.398 24.0284 112.955 23.2614C113.511 22.4943 114.261 21.8949 115.205 21.4631C116.153 21.0256 117.224 20.8068 118.418 20.8068C119.622 20.8068 120.676 21.0256 121.58 21.4631C122.483 21.9006 123.185 22.4915 123.685 23.2358C124.19 23.9744 124.44 24.804 124.435 25.7244C124.44 26.7017 124.136 27.517 123.523 28.1705C122.915 28.8239 122.122 29.2386 121.145 29.4148V29.5511C122.429 29.7159 123.406 30.1619 124.077 30.8892C124.753 31.6108 125.088 32.5142 125.082 33.5994C125.088 34.5938 124.801 35.4773 124.222 36.25C123.648 37.0227 122.855 37.6307 121.844 38.0739C120.832 38.517 119.673 38.7386 118.366 38.7386Z" fill="white"/>
</svg>
