<svg width="179" height="60" viewBox="0 0 179 60" fill="none" xmlns="http://www.w3.org/2000/svg">
<rect width="179" height="60" fill="#17B0E7"/>
<path d="M50.6675 26.8271C50.5625 26.7545 49.6875 26.0474 47.7975 26.0474C47.3075 26.0474 46.8175 26.1018 46.3275 26.1925C45.96 23.6541 43.9125 22.3668 43.825 22.3124L43.3175 22.0042L43.0025 22.4937C42.5825 23.1464 42.25 23.8898 42.11 24.6513C41.76 26.1018 41.97 27.4798 42.6875 28.6583C41.83 29.166 40.43 29.2929 40.1325 29.2929H17.085C16.49 29.2929 16 29.8006 16 30.4351C16 32.5202 16.315 34.6053 17.015 36.5635C17.8025 38.7211 18.9925 40.3166 20.515 41.2957C22.23 42.3835 25.0475 43 28.25 43C29.6325 43 31.0675 42.8731 32.485 42.6011C34.445 42.2385 36.335 41.5314 38.0675 40.4979C39.5023 39.6478 40.7866 38.5502 41.865 37.2524C43.7025 35.1311 44.7875 32.7197 45.575 30.6346H45.9075C47.9025 30.6346 49.145 29.8006 49.8275 29.0934C50.2825 28.6583 50.615 28.1325 50.86 27.516L51 27.0809L50.6675 26.8271ZM19.2375 28.622H22.3175C22.4575 28.622 22.5975 28.4951 22.5975 28.3319V25.4672C22.5975 25.3222 22.475 25.1771 22.3175 25.1771H19.2375C19.08 25.1771 18.9575 25.304 18.9575 25.4672V28.3319C18.975 28.4951 19.08 28.622 19.2375 28.622ZM23.49 28.622H26.57C26.71 28.622 26.85 28.4951 26.85 28.3319V25.4672C26.85 25.3222 26.7275 25.1771 26.57 25.1771H23.49C23.3325 25.1771 23.21 25.304 23.21 25.4672V28.3319C23.2275 28.4951 23.3325 28.622 23.49 28.622ZM27.8125 28.622H30.875C31.05 28.622 31.1725 28.4951 31.1725 28.3319V25.4672C31.1725 25.3222 31.0675 25.1771 30.875 25.1771H27.8125C27.6725 25.1771 27.55 25.304 27.55 25.4672V28.3319C27.55 28.4951 27.655 28.622 27.8125 28.622ZM32.0825 28.622H35.18C35.32 28.622 35.4425 28.4951 35.4425 28.3319V25.4672C35.4425 25.3222 35.3375 25.1771 35.18 25.1771H32.0825C31.9425 25.1771 31.82 25.304 31.82 25.4672V28.3319C31.82 28.4951 31.9425 28.622 32.0825 28.622ZM23.49 24.5607H26.57C26.71 24.5607 26.85 24.3975 26.85 24.2343V21.3877C26.85 21.2245 26.7275 21.0976 26.57 21.0976H23.49C23.3325 21.0976 23.21 21.2064 23.21 21.3877V24.2343C23.2275 24.3975 23.3325 24.5607 23.49 24.5607ZM27.8125 24.5607H30.875C31.05 24.5607 31.1725 24.3975 31.1725 24.2343V21.3877C31.1725 21.2245 31.0675 21.0976 30.875 21.0976H27.8125C27.6725 21.0976 27.55 21.2064 27.55 21.3877V24.2343C27.55 24.3975 27.655 24.5607 27.8125 24.5607ZM32.0825 24.5607H35.18C35.32 24.5607 35.4425 24.3975 35.4425 24.2343V21.3877C35.4425 21.2245 35.32 21.0976 35.18 21.0976H32.0825C31.9425 21.0976 31.82 21.2064 31.82 21.3877V24.2343C31.82 24.3975 31.9425 24.5607 32.0825 24.5607ZM32.0825 20.4268H35.18C35.32 20.4268 35.4425 20.2999 35.4425 20.1367V17.3082C35.4425 17.1269 35.32 17 35.18 17H32.0825C31.9425 17 31.82 17.1088 31.82 17.3082V20.1367C31.82 20.2817 31.9425 20.4268 32.0825 20.4268ZM36.3875 28.622H39.4675C39.625 28.622 39.7475 28.4951 39.7475 28.3319V25.4672C39.7475 25.3222 39.625 25.1771 39.4675 25.1771H36.3875C36.2475 25.1771 36.125 25.304 36.125 25.4672V28.3319C36.125 28.4951 36.2475 28.622 36.3875 28.622Z" fill="white"/>
<path d="M68.7045 38.5H62.517V21.0455H68.7557C70.5114 21.0455 72.0227 21.3949 73.2898 22.0938C74.5568 22.7869 75.5313 23.7841 76.2131 25.0852C76.9006 26.3864 77.2443 27.9432 77.2443 29.7557C77.2443 31.5739 76.9006 33.1364 76.2131 34.4432C75.5313 35.75 74.5511 36.7528 73.2727 37.4517C72 38.1506 70.4773 38.5 68.7045 38.5ZM66.2074 35.3381H68.5511C69.642 35.3381 70.5597 35.1449 71.304 34.7585C72.054 34.3665 72.6165 33.7614 72.9915 32.9432C73.3722 32.1193 73.5625 31.0568 73.5625 29.7557C73.5625 28.4659 73.3722 27.4119 72.9915 26.5938C72.6165 25.7756 72.0568 25.1733 71.3125 24.7869C70.5682 24.4006 69.6506 24.2074 68.5597 24.2074H66.2074V35.3381ZM96.0178 29.7727C96.0178 31.6761 95.657 33.2955 94.9354 34.6307C94.2195 35.9659 93.2422 36.9858 92.0036 37.6903C90.7706 38.3892 89.3842 38.7386 87.8445 38.7386C86.2933 38.7386 84.9013 38.3864 83.6683 37.6818C82.4354 36.9773 81.4609 35.9574 80.745 34.6222C80.0291 33.2869 79.6712 31.6705 79.6712 29.7727C79.6712 27.8693 80.0291 26.25 80.745 24.9148C81.4609 23.5795 82.4354 22.5625 83.6683 21.8636C84.9013 21.1591 86.2933 20.8068 87.8445 20.8068C89.3842 20.8068 90.7706 21.1591 92.0036 21.8636C93.2422 22.5625 94.2195 23.5795 94.9354 24.9148C95.657 26.25 96.0178 27.8693 96.0178 29.7727ZM92.2763 29.7727C92.2763 28.5398 92.0916 27.5 91.7223 26.6534C91.3587 25.8068 90.8445 25.1648 90.1797 24.7273C89.5149 24.2898 88.7365 24.071 87.8445 24.071C86.9524 24.071 86.174 24.2898 85.5092 24.7273C84.8445 25.1648 84.3274 25.8068 83.9581 26.6534C83.5945 27.5 83.4126 28.5398 83.4126 29.7727C83.4126 31.0057 83.5945 32.0455 83.9581 32.892C84.3274 33.7386 84.8445 34.3807 85.5092 34.8182C86.174 35.2557 86.9524 35.4744 87.8445 35.4744C88.7365 35.4744 89.5149 35.2557 90.1797 34.8182C90.8445 34.3807 91.3587 33.7386 91.7223 32.892C92.0916 32.0455 92.2763 31.0057 92.2763 29.7727ZM114.152 27.1562H110.419C110.351 26.6733 110.212 26.2443 110.001 25.8693C109.791 25.4886 109.521 25.1648 109.192 24.8977C108.862 24.6307 108.482 24.4261 108.05 24.2841C107.624 24.142 107.161 24.071 106.661 24.071C105.757 24.071 104.97 24.2955 104.3 24.7443C103.629 25.1875 103.109 25.8352 102.74 26.6875C102.371 27.5341 102.186 28.5625 102.186 29.7727C102.186 31.017 102.371 32.0625 102.74 32.9091C103.115 33.7557 103.638 34.3949 104.308 34.8267C104.979 35.2585 105.754 35.4744 106.635 35.4744C107.129 35.4744 107.587 35.4091 108.007 35.2784C108.433 35.1477 108.811 34.9574 109.141 34.7074C109.47 34.4517 109.743 34.142 109.959 33.7784C110.18 33.4148 110.334 33 110.419 32.5341L114.152 32.5511C114.055 33.3523 113.814 34.125 113.428 34.8693C113.047 35.608 112.533 36.2699 111.885 36.8551C111.243 37.4347 110.476 37.8949 109.584 38.2358C108.697 38.571 107.695 38.7386 106.575 38.7386C105.018 38.7386 103.626 38.3864 102.399 37.6818C101.178 36.9773 100.212 35.9574 99.5014 34.6222C98.7969 33.2869 98.4446 31.6705 98.4446 29.7727C98.4446 27.8693 98.8026 26.25 99.5185 24.9148C100.234 23.5795 101.206 22.5625 102.433 21.8636C103.661 21.1591 105.041 20.8068 106.575 20.8068C107.587 20.8068 108.524 20.9489 109.388 21.233C110.257 21.517 111.027 21.9318 111.697 22.4773C112.368 23.017 112.913 23.679 113.334 24.4631C113.76 25.2472 114.033 26.1449 114.152 27.1562ZM116.798 38.5V21.0455H120.489V28.7415H120.719L127 21.0455H131.423L124.946 28.8608L131.5 38.5H127.085L122.304 31.3239L120.489 33.5398V38.5H116.798ZM133.345 38.5V21.0455H145.107V24.0881H137.036V28.2472H144.501V31.2898H137.036V35.4574H145.141V38.5H133.345ZM148.04 38.5V21.0455H154.927C156.245 21.0455 157.37 21.2812 158.302 21.7528C159.239 22.2187 159.952 22.8807 160.441 23.7386C160.935 24.5909 161.183 25.5937 161.183 26.7472C161.183 27.9062 160.933 28.9034 160.433 29.7386C159.933 30.5682 159.208 31.2045 158.259 31.6477C157.316 32.0909 156.174 32.3125 154.833 32.3125H150.222V29.3466H154.237C154.941 29.3466 155.526 29.25 155.992 29.0568C156.458 28.8636 156.805 28.5739 157.032 28.1875C157.265 27.8011 157.381 27.321 157.381 26.7472C157.381 26.1676 157.265 25.679 157.032 25.2812C156.805 24.8835 156.455 24.5824 155.984 24.3778C155.518 24.1676 154.93 24.0625 154.219 24.0625H151.731V38.5H148.04ZM157.467 30.5568L161.805 38.5H157.731L153.487 30.5568H157.467Z" fill="white"/>
</svg>
