<svg width="162" height="60" viewBox="0 0 162 60" fill="none" xmlns="http://www.w3.org/2000/svg">
<rect width="162" height="60" fill="#412D57"/>
<path d="M27.3739 26.1889L33.2578 22.6889C33.4091 22.6111 33.5906 22.6111 33.7418 22.6889L39.6258 26.1889C39.777 26.2822 39.8678 26.4378 39.8678 26.6089V33.6089C39.8678 33.78 39.777 33.9356 39.6258 34.0289L33.7418 37.5289C33.6666 37.5673 33.5838 37.5872 33.4998 37.5872C33.4159 37.5872 33.333 37.5673 33.2578 37.5289L27.3739 34.0289C27.3019 33.9862 27.2418 33.9251 27.1994 33.8515C27.157 33.7779 27.1337 33.6944 27.1319 33.6089V26.6089C27.1319 26.4378 27.2226 26.2822 27.3739 26.1889ZM48.8071 29.3778C49.0643 29.8289 49.0643 30.3578 48.8071 30.8244L41.7736 43.3156C41.5165 43.7822 41.0627 44 40.5333 44H26.4663C25.9369 44 25.4832 43.7667 25.226 43.3156L18.1925 30.8244C18.0664 30.5998 18 30.345 18 30.0856C18 29.8262 18.0664 29.5713 18.1925 29.3467L25.226 16.7778C25.4832 16.3422 25.9369 16 26.4663 16H40.5333C41.0627 16 41.5165 16.3422 41.7736 16.7778L48.8071 29.3778ZM42.9837 35.4444V24.7889C42.9837 24.6022 42.8778 24.4311 42.7114 24.3378L33.7418 19.0333C33.666 18.9883 33.5799 18.9646 33.4923 18.9646C33.4046 18.9646 33.3186 18.9883 33.2427 19.0333L24.2882 24.3378C24.1218 24.4311 24.016 24.6022 24.016 24.7889V35.4444C24.016 35.6156 24.1218 35.7867 24.2882 35.88L33.2578 41.1844C33.4091 41.2778 33.6057 41.2778 33.757 41.1844L42.7114 35.88C42.7903 35.8387 42.8571 35.7766 42.9049 35.7001C42.9527 35.6236 42.9799 35.5353 42.9837 35.4444Z" fill="white"/>
<path d="M62.517 38.5V21.0455H74.2784V24.0881H66.2074V28.2472H73.6733V31.2898H66.2074V35.4574H74.3125V38.5H62.517ZM86.6811 26.0653C86.6129 25.3778 86.3203 24.8437 85.8033 24.4631C85.2862 24.0824 84.5845 23.892 83.6982 23.892C83.0959 23.892 82.5874 23.9773 82.1726 24.1477C81.7578 24.3125 81.4396 24.5426 81.218 24.8381C81.0021 25.1335 80.8942 25.4688 80.8942 25.8438C80.8828 26.1562 80.9482 26.429 81.0902 26.6619C81.2379 26.8949 81.4396 27.0966 81.6953 27.267C81.951 27.4318 82.2464 27.5767 82.5817 27.7017C82.9169 27.821 83.2749 27.9233 83.6555 28.0085L85.2237 28.3835C85.9851 28.554 86.6839 28.7812 87.3203 29.0653C87.9567 29.3494 88.5078 29.6989 88.9737 30.1136C89.4396 30.5284 89.8004 31.017 90.0561 31.5795C90.3175 32.142 90.451 32.7869 90.4567 33.5142C90.451 34.5824 90.1783 35.5085 89.6385 36.2926C89.1044 37.071 88.3317 37.6761 87.3203 38.108C86.3146 38.5341 85.1016 38.7472 83.6811 38.7472C82.272 38.7472 81.0447 38.5312 79.9993 38.0994C78.9595 37.6676 78.147 37.0284 77.5618 36.1818C76.9822 35.3295 76.6783 34.2756 76.6499 33.0199H80.2209C80.2607 33.6051 80.4283 34.0937 80.7237 34.4858C81.0249 34.8722 81.4254 35.1648 81.9254 35.3636C82.4311 35.5568 83.0021 35.6534 83.6385 35.6534C84.2635 35.6534 84.8061 35.5625 85.2663 35.3807C85.7322 35.1989 86.093 34.946 86.3487 34.6222C86.6044 34.2983 86.7322 33.9261 86.7322 33.5057C86.7322 33.1136 86.6158 32.7841 86.3828 32.517C86.1555 32.25 85.8203 32.0227 85.3771 31.8352C84.9396 31.6477 84.4027 31.4773 83.7663 31.3239L81.8658 30.8466C80.3942 30.4886 79.2322 29.929 78.38 29.1676C77.5277 28.4062 77.1044 27.3807 77.1101 26.0909C77.1044 25.0341 77.3857 24.1108 77.9538 23.321C78.5277 22.5312 79.3146 21.9148 80.3146 21.4716C81.3146 21.0284 82.451 20.8068 83.7237 20.8068C85.0192 20.8068 86.1499 21.0284 87.1158 21.4716C88.0874 21.9148 88.843 22.5312 89.3828 23.321C89.9226 24.1108 90.201 25.0256 90.218 26.0653H86.6811ZM92.9389 38.5V21.0455H96.6293V35.4574H104.112V38.5H92.9389ZM110.246 21.0455V38.5H106.556V21.0455H110.246ZM127.882 21.0455V38.5H124.695L117.101 27.5142H116.973V38.5H113.283V21.0455H116.521L124.055 32.0227H124.209V21.0455H127.882ZM130.266 24.0881V21.0455H144.602V24.0881H139.258V38.5H135.61V24.0881H130.266Z" fill="white"/>
</svg>
