<svg width="156" height="60" viewBox="0 0 156 60" fill="none" xmlns="http://www.w3.org/2000/svg">
<rect width="156" height="60" fill="#EE4324"/>
<path d="M28.2503 25.0003C26.8579 25.0003 25.5224 24.4472 24.5378 23.4626C23.5532 22.4779 23 21.1425 23 19.75C23 18.3575 23.5532 17.0221 24.5378 16.0375C25.5224 15.0529 26.8579 14.4997 28.2503 14.4997H33.4999V25.0003M28.2503 25.0003H33.4999M28.2503 25.0003C26.8581 25.0003 25.5228 25.5534 24.5383 26.5379C23.5539 27.5224 23.0008 28.8576 23.0008 30.2499C23.0008 31.6421 23.5539 32.9774 24.5383 33.9619C25.5228 34.9463 26.8581 35.4994 28.2503 35.4994H33.4999V25.0003" stroke="white" stroke-width="1.5"/>
<path d="M44.0005 30.2499C44.0005 31.6424 43.4473 32.9778 42.4627 33.9624C41.4781 34.9471 40.1427 35.5002 38.7502 35.5002C37.3577 35.5002 36.0223 34.9471 35.0376 33.9624C34.053 32.9778 33.4999 31.6424 33.4999 30.2499C33.4999 28.8574 34.053 27.522 35.0376 26.5374C36.0223 25.5527 37.3577 24.9996 38.7502 24.9996C40.1427 24.9996 41.4781 25.5527 42.4627 26.5374C43.4473 27.522 44.0005 28.8574 44.0005 30.2499ZM28.2503 35.501H33.4999V40.7505C33.4995 41.7887 33.1914 42.8035 32.6144 43.6666C32.0374 44.5297 31.2174 45.2023 30.2581 45.5994C29.2989 45.9964 28.2434 46.1002 27.2252 45.8974C26.207 45.6947 25.2718 45.1946 24.5378 44.4604C23.8038 43.7262 23.304 42.7908 23.1015 41.7725C22.8991 40.7543 23.0032 39.6988 23.4005 38.7397C23.7979 37.7806 24.4708 36.9608 25.334 36.384C26.1972 35.8073 27.2121 35.501 28.2503 35.501Z" stroke="white" stroke-width="1.5"/>
<path d="M33.4999 14.4997H38.7494C40.1419 14.4997 41.4773 15.0529 42.4619 16.0375C43.4466 17.0221 43.9997 18.3575 43.9997 19.75C43.9997 21.1425 43.4466 22.4779 42.4619 23.4626C41.4773 24.4472 40.1419 25.0003 38.7494 25.0003H33.4999V14.4997Z" stroke="white" stroke-width="1.5"/>
<path d="M62.517 38.5V21.0455H74.0739V24.0881H66.2074V28.2472H73.3068V31.2898H66.2074V38.5H62.517ZM80.2464 21.0455V38.5H76.5561V21.0455H80.2464ZM94.8565 26.6875C94.7372 26.2727 94.5696 25.9062 94.3537 25.5881C94.1378 25.2642 93.8736 24.9915 93.5611 24.7699C93.2543 24.5426 92.902 24.3693 92.5043 24.25C92.1122 24.1307 91.6776 24.071 91.2003 24.071C90.3082 24.071 89.5241 24.2926 88.848 24.7358C88.1776 25.179 87.6548 25.8239 87.2798 26.6705C86.9048 27.5114 86.7173 28.5398 86.7173 29.7557C86.7173 30.9716 86.902 32.0057 87.2713 32.858C87.6406 33.7102 88.1634 34.3608 88.8395 34.8097C89.5156 35.2528 90.3139 35.4744 91.2344 35.4744C92.0696 35.4744 92.7827 35.3267 93.3736 35.0312C93.9702 34.7301 94.4247 34.3068 94.7372 33.7614C95.0554 33.2159 95.2145 32.571 95.2145 31.8267L95.9645 31.9375H91.4645V29.1591H98.7685V31.358C98.7685 32.892 98.4446 34.2102 97.7969 35.3125C97.1491 36.4091 96.2571 37.2557 95.1207 37.8523C93.9844 38.4432 92.6832 38.7386 91.2173 38.7386C89.581 38.7386 88.1435 38.3778 86.9048 37.6562C85.6662 36.929 84.7003 35.8977 84.0071 34.5625C83.3196 33.2216 82.9759 31.6307 82.9759 29.7898C82.9759 28.375 83.1804 27.1136 83.5895 26.0057C84.0043 24.892 84.5838 23.9489 85.3281 23.1761C86.0724 22.4034 86.9389 21.8153 87.9276 21.4119C88.9162 21.0085 89.9872 20.8068 91.1406 20.8068C92.1293 20.8068 93.0497 20.9517 93.902 21.2415C94.7543 21.5256 95.5099 21.929 96.169 22.4517C96.8338 22.9744 97.3764 23.5966 97.7969 24.3182C98.2173 25.0341 98.4872 25.8239 98.6065 26.6875H94.8565ZM101.54 21.0455H106.092L110.898 32.7727H111.103L115.91 21.0455H120.461V38.5H116.881V27.1392H116.737L112.219 38.4148H109.782L105.265 27.0966H105.12V38.5H101.54V21.0455ZM126.51 38.5H122.555L128.581 21.0455H133.337L139.354 38.5H135.399L131.027 25.0341H130.891L126.51 38.5ZM126.263 31.6392H135.604V34.5199H126.263V31.6392Z" fill="white"/>
</svg>
