<svg width="162" height="60" viewBox="0 0 162 60" fill="none" xmlns="http://www.w3.org/2000/svg">
<rect width="162" height="60" fill="#DD4428"/>
<path d="M33 41.0759L40.7 39.1291L41.7383 28.6232H28.0433L27.7033 25.1295H42.08L42.4583 21.7024H23.5417L24.6017 32.0534H37.635L37.2 36.4956L33 37.5295L28.8 36.4956L28.5367 33.6374H24.7533L25.3017 39.1306L33 41.0759ZM18 16H48L45.295 43.9L33 47L20.705 43.9L18 16Z" fill="white"/>
<path d="M62.517 38.5V21.0455H66.2074V28.2472H73.6989V21.0455H77.3807V38.5H73.6989V31.2898H66.2074V38.5H62.517ZM79.7585 24.0881V21.0455H94.0938V24.0881H88.75V38.5H85.1023V24.0881H79.7585ZM96.4545 21.0455H101.006L105.812 32.7727H106.017L110.824 21.0455H115.375V38.5H111.795V27.1392H111.651L107.134 38.4148H104.696L100.179 27.0966H100.034V38.5H96.4545V21.0455ZM118.415 38.5V21.0455H122.106V35.4574H129.589V38.5H118.415ZM138.305 38.7386C137.101 38.7386 136.027 38.517 135.084 38.0739C134.146 37.6307 133.402 37.0199 132.851 36.2415C132.3 35.4631 132.013 34.571 131.99 33.5653H135.57C135.609 34.2415 135.893 34.7898 136.422 35.2102C136.95 35.6307 137.578 35.8409 138.305 35.8409C138.885 35.8409 139.396 35.7131 139.839 35.4574C140.288 35.196 140.638 34.8352 140.888 34.375C141.143 33.9091 141.271 33.375 141.271 32.7727C141.271 32.1591 141.141 31.6193 140.879 31.1534C140.624 30.6875 140.268 30.3239 139.814 30.0625C139.359 29.8011 138.839 29.6676 138.254 29.6619C137.743 29.6619 137.246 29.767 136.763 29.9773C136.286 30.1875 135.913 30.4744 135.646 30.8381L132.365 30.25L133.192 21.0455H143.862V24.0625H136.234L135.783 28.4347H135.885C136.192 28.0028 136.655 27.6449 137.274 27.3608C137.893 27.0767 138.587 26.9347 139.354 26.9347C140.405 26.9347 141.342 27.1818 142.166 27.6761C142.99 28.1705 143.641 28.8494 144.118 29.7131C144.595 30.571 144.831 31.5597 144.825 32.679C144.831 33.8551 144.558 34.9006 144.007 35.8153C143.462 36.7244 142.697 37.4403 141.714 37.9631C140.737 38.4801 139.601 38.7386 138.305 38.7386Z" fill="white"/>
</svg>
