<svg width="225" height="60" viewBox="0 0 225 60" fill="none" xmlns="http://www.w3.org/2000/svg">
<rect width="225" height="60" fill="#2C2D2A"/>
<rect width="32" height="32" transform="translate(16 14)" fill="#F5DE19"/>
<path d="M37.0135 38.4911C37.2854 39.0446 37.7072 39.5098 38.2305 39.8333C38.7539 40.1568 39.3574 40.3254 39.9719 40.3198C41.2121 40.3198 42.0052 39.6969 42.0052 38.834C42.0052 37.8053 41.1905 37.4373 39.8251 36.8372L39.0764 36.5149C36.9145 35.5903 35.4808 34.4325 35.4808 31.9843C35.4808 29.7293 37.1876 28.0115 39.8649 28.0115C40.7316 27.9488 41.5975 28.1437 42.3546 28.5719C43.1118 29.0002 43.7267 29.6428 44.1227 30.4197L41.7822 31.9226C41.6296 31.5375 41.3641 31.2079 41.0209 30.9777C40.6777 30.7475 40.273 30.6274 39.8604 30.6334C39.6803 30.6153 39.4985 30.6351 39.3265 30.6914C39.1544 30.7478 38.996 30.8396 38.8612 30.9609C38.7265 31.0822 38.6183 31.2303 38.5437 31.3959C38.4691 31.5615 38.4296 31.7409 38.4278 31.9226C38.4278 32.8244 38.9842 33.1901 40.2689 33.7513L41.0176 34.0736C43.5618 35.1697 45 36.2864 45 38.7974C45 41.505 42.8825 42.9885 40.039 42.9885C38.9312 43.0587 37.8268 42.8057 36.8588 42.2601C35.8909 41.7144 35.1005 40.8993 34.5831 39.9129L37.0135 38.4911ZM26.4373 38.7517C26.9072 39.5894 27.335 40.2981 28.3636 40.2981C29.3467 40.2981 29.968 39.9117 29.968 38.4088V28.1829H32.9616V38.4488C32.9616 41.5621 31.1411 42.9794 28.4911 42.9794C27.5543 43.0308 26.624 42.7963 25.8225 42.3067C25.0209 41.8172 24.3856 41.0954 24 40.2363L26.4373 38.7517Z" fill="black"/>
<path d="M66.5057 21.0455H70.1534V33.2159C70.1534 34.3409 69.9006 35.3182 69.3949 36.1477C68.8949 36.9773 68.1989 37.6165 67.3068 38.0653C66.4148 38.5142 65.3778 38.7386 64.196 38.7386C63.1449 38.7386 62.1903 38.554 61.3324 38.1847C60.4801 37.8097 59.804 37.2415 59.304 36.4801C58.804 35.7131 58.5568 34.75 58.5625 33.5909H62.2358C62.2472 34.0511 62.3409 34.446 62.517 34.7756C62.6989 35.0994 62.946 35.3494 63.2585 35.5256C63.5767 35.696 63.9517 35.7812 64.3835 35.7812C64.8381 35.7812 65.2216 35.6847 65.5341 35.4915C65.8523 35.2926 66.0938 35.0028 66.2585 34.6222C66.4233 34.2415 66.5057 33.7727 66.5057 33.2159V21.0455ZM76.2131 38.5H72.2585L78.2841 21.0455H83.0398L89.0568 38.5H85.1023L80.7301 25.0341H80.5938L76.2131 38.5ZM75.9659 31.6392H85.3068V34.5199H75.9659V31.6392ZM92.1314 21.0455L96.3501 34.3068H96.5121L100.739 21.0455H104.83L98.8132 38.5H94.0575L88.032 21.0455H92.1314ZM107.619 38.5H103.665L109.69 21.0455H114.446L120.463 38.5H116.509L112.136 25.0341H112L107.619 38.5ZM107.372 31.6392H116.713V34.5199H107.372V31.6392ZM131.634 26.0653C131.566 25.3778 131.273 24.8437 130.756 24.4631C130.239 24.0824 129.538 23.892 128.651 23.892C128.049 23.892 127.54 23.9773 127.126 24.1477C126.711 24.3125 126.393 24.5426 126.171 24.8381C125.955 25.1335 125.847 25.4688 125.847 25.8438C125.836 26.1562 125.901 26.429 126.043 26.6619C126.191 26.8949 126.393 27.0966 126.648 27.267C126.904 27.4318 127.2 27.5767 127.535 27.7017C127.87 27.821 128.228 27.9233 128.609 28.0085L130.177 28.3835C130.938 28.554 131.637 28.7812 132.273 29.0653C132.91 29.3494 133.461 29.6989 133.927 30.1136C134.393 30.5284 134.754 31.017 135.009 31.5795C135.271 32.142 135.404 32.7869 135.41 33.5142C135.404 34.5824 135.131 35.5085 134.592 36.2926C134.058 37.071 133.285 37.6761 132.273 38.108C131.268 38.5341 130.055 38.7472 128.634 38.7472C127.225 38.7472 125.998 38.5312 124.952 38.0994C123.913 37.6676 123.1 37.0284 122.515 36.1818C121.935 35.3295 121.631 34.2756 121.603 33.0199H125.174C125.214 33.6051 125.381 34.0937 125.677 34.4858C125.978 34.8722 126.379 35.1648 126.879 35.3636C127.384 35.5568 127.955 35.6534 128.592 35.6534C129.217 35.6534 129.759 35.5625 130.219 35.3807C130.685 35.1989 131.046 34.946 131.302 34.6222C131.558 34.2983 131.685 33.9261 131.685 33.5057C131.685 33.1136 131.569 32.7841 131.336 32.517C131.109 32.25 130.773 32.0227 130.33 31.8352C129.893 31.6477 129.356 31.4773 128.719 31.3239L126.819 30.8466C125.347 30.4886 124.185 29.929 123.333 29.1676C122.481 28.4062 122.058 27.3807 122.063 26.0909C122.058 25.0341 122.339 24.1108 122.907 23.321C123.481 22.5312 124.268 21.9148 125.268 21.4716C126.268 21.0284 127.404 20.8068 128.677 20.8068C129.972 20.8068 131.103 21.0284 132.069 21.4716C133.04 21.9148 133.796 22.5312 134.336 23.321C134.876 24.1108 135.154 25.0256 135.171 26.0653H131.634ZM153.293 27.1562H149.56C149.491 26.6733 149.352 26.2443 149.142 25.8693C148.932 25.4886 148.662 25.1648 148.332 24.8977C148.003 24.6307 147.622 24.4261 147.19 24.2841C146.764 24.142 146.301 24.071 145.801 24.071C144.898 24.071 144.111 24.2955 143.44 24.7443C142.77 25.1875 142.25 25.8352 141.881 26.6875C141.511 27.5341 141.327 28.5625 141.327 29.7727C141.327 31.017 141.511 32.0625 141.881 32.9091C142.256 33.7557 142.778 34.3949 143.449 34.8267C144.119 35.2585 144.895 35.4744 145.776 35.4744C146.27 35.4744 146.727 35.4091 147.148 35.2784C147.574 35.1477 147.952 34.9574 148.281 34.7074C148.611 34.4517 148.884 34.142 149.099 33.7784C149.321 33.4148 149.474 33 149.56 32.5341L153.293 32.5511C153.196 33.3523 152.955 34.125 152.568 34.8693C152.188 35.608 151.673 36.2699 151.026 36.8551C150.384 37.4347 149.616 37.8949 148.724 38.2358C147.838 38.571 146.835 38.7386 145.716 38.7386C144.159 38.7386 142.767 38.3864 141.54 37.6818C140.318 36.9773 139.352 35.9574 138.642 34.6222C137.938 33.2869 137.585 31.6705 137.585 29.7727C137.585 27.8693 137.943 26.25 138.659 24.9148C139.375 23.5795 140.347 22.5625 141.574 21.8636C142.801 21.1591 144.182 20.8068 145.716 20.8068C146.727 20.8068 147.665 20.9489 148.528 21.233C149.398 21.517 150.168 21.9318 150.838 22.4773C151.509 23.017 152.054 23.679 152.474 24.4631C152.901 25.2472 153.173 26.1449 153.293 27.1562ZM155.939 38.5V21.0455H162.825C164.143 21.0455 165.268 21.2812 166.2 21.7528C167.138 22.2187 167.851 22.8807 168.339 23.7386C168.834 24.5909 169.081 25.5937 169.081 26.7472C169.081 27.9062 168.831 28.9034 168.331 29.7386C167.831 30.5682 167.107 31.2045 166.158 31.6477C165.214 32.0909 164.072 32.3125 162.732 32.3125H158.121V29.3466H162.135C162.839 29.3466 163.425 29.25 163.891 29.0568C164.357 28.8636 164.703 28.5739 164.93 28.1875C165.163 27.8011 165.28 27.321 165.28 26.7472C165.28 26.1676 165.163 25.679 164.93 25.2812C164.703 24.8835 164.354 24.5824 163.882 24.3778C163.416 24.1676 162.828 24.0625 162.118 24.0625H159.629V38.5H155.939ZM165.365 30.5568L169.703 38.5H165.629L161.385 30.5568H165.365ZM175.379 21.0455V38.5H171.689V21.0455H175.379ZM178.415 38.5V21.0455H185.302C186.626 21.0455 187.754 21.2983 188.685 21.804C189.617 22.304 190.327 23 190.816 23.892C191.31 24.7784 191.558 25.8011 191.558 26.9602C191.558 28.1193 191.308 29.142 190.808 30.0284C190.308 30.9148 189.583 31.6051 188.634 32.0994C187.691 32.5937 186.549 32.8409 185.208 32.8409H180.819V29.8835H184.612C185.322 29.8835 185.907 29.7614 186.367 29.517C186.833 29.267 187.18 28.9233 187.407 28.4858C187.64 28.0426 187.756 27.5341 187.756 26.9602C187.756 26.3807 187.64 25.875 187.407 25.4432C187.18 25.0057 186.833 24.6676 186.367 24.429C185.901 24.1847 185.31 24.0625 184.594 24.0625H182.106V38.5H178.415ZM193.29 24.0881V21.0455H207.625V24.0881H202.281V38.5H198.634V24.0881H193.29Z" fill="white"/>
</svg>
