<svg width="138" height="60" viewBox="0 0 138 60" fill="none" xmlns="http://www.w3.org/2000/svg">
<rect width="138" height="60" fill="#B91124"/>
<path d="M46.7244 36.7388C46.5052 38.0401 45.7251 39.1767 44.5844 39.8576C43.521 40.4921 42.2467 40.6816 40.8974 40.882C40.1747 40.9893 39.4273 41.1005 38.6972 41.2859C36.7667 41.7764 34.8967 42.7335 33.0886 43.6589C29.4697 45.511 26.3445 47.1103 23.3976 45.0059C21.239 43.4645 21.3386 40.6125 21.5901 39.0496C21.8232 37.6017 22.4533 36.2681 23.0626 34.9786C23.1664 34.7594 23.2694 34.5398 23.3715 34.3198C23.6787 34.4463 24.0009 34.5296 24.3296 34.5675C23.7093 36.6767 24.6848 38.97 26.7321 40.0537L27.0124 40.2021L27.309 40.0932C28.9276 39.4992 30.4191 38.5463 31.7419 37.2602C32.597 36.429 33.3322 35.5094 33.9365 34.5268C34.1202 34.5553 34.3057 34.5696 34.4915 34.5697C36.3706 34.5697 37.9266 33.1223 38.1675 31.2529C38.9366 31.2239 39.7536 31.2237 40.5272 31.2527C40.7677 33.1223 42.324 34.5698 44.2031 34.5698C44.9888 34.5698 45.7176 34.3161 46.318 33.8851C46.7348 34.7643 46.8904 35.7534 46.7244 36.7388ZM24.7434 28.4485C25.9857 28.4485 26.9964 29.4899 26.9964 30.77C26.9967 31.2131 26.8732 31.6469 26.6406 32.0196C26.2662 32.6214 25.6295 33.0339 24.8982 33.0853C24.847 33.0889 24.7953 33.0914 24.7434 33.0914C24.4665 33.0914 24.2013 33.0394 23.956 32.9449C23.4622 32.7535 23.0486 32.3906 22.7866 31.9187C22.592 31.5691 22.4898 31.173 22.4902 30.77C22.4902 29.4899 23.501 28.4485 24.7434 28.4485ZM32.2386 30.7479C32.2386 29.5849 33.073 28.6192 34.1572 28.4522C34.2664 28.4351 34.3779 28.4266 34.4916 28.4265C35.2139 28.4265 35.857 28.779 36.2694 29.3253C36.3726 29.4616 36.4608 29.6092 36.5324 29.7655C36.6726 30.0729 36.7451 30.4083 36.7446 30.7479C36.7446 30.9335 36.7229 31.1139 36.6828 31.2869C36.4632 32.234 35.6794 32.958 34.7189 33.0576C34.6442 33.0654 34.5685 33.0693 34.4916 33.0693C34.0582 33.0697 33.6341 32.9405 33.2706 32.6974C32.6503 32.2834 32.2386 31.5644 32.2386 30.7479ZM41.6421 27.9873C41.1517 28.4694 40.7988 29.0807 40.6218 29.7549C39.7726 29.7226 38.9225 29.7226 38.0733 29.7549C37.8826 29.0262 37.4875 28.3834 36.9558 27.8951L39.2873 23.0378L41.6421 27.9873ZM31.5994 16.0006H46.9687L43.3386 27.0318C43.1824 27.0704 43.0289 27.1194 42.8789 27.1786L39.2929 19.6413L35.6968 27.1335C35.54 27.0781 35.3798 27.0336 35.2172 27.0004L31.5994 16.0006ZM46.4561 30.748C46.4561 30.9807 46.4224 31.2054 46.3603 31.4177C46.2131 31.9173 45.9073 32.3515 45.4919 32.6506C45.1144 32.9236 44.6643 33.0699 44.2031 33.0694C43.1628 33.0694 42.2853 32.339 42.0272 31.3498C41.976 31.1536 41.95 30.9513 41.9501 30.748C41.9501 30.4307 42.0123 30.1281 42.1246 29.8524C42.1827 29.7114 42.2541 29.5766 42.3377 29.4499C42.7432 28.8333 43.4274 28.4266 44.2031 28.4266C44.2742 28.4267 44.3445 28.4302 44.4139 28.4371C45.5578 28.5469 46.4561 29.5411 46.4561 30.748ZM47.9125 30.748C47.9125 28.8822 46.6077 27.3253 44.8892 26.9928L49 14.5H29.5683L33.6856 27.018C32.0267 27.3984 30.7824 28.9258 30.7824 30.7479C30.7824 32.1162 31.4842 33.3179 32.5359 33.9933C32.03 34.7699 31.4302 35.5006 30.7427 36.169C29.6524 37.2287 28.4378 38.0324 27.1284 38.5613C25.8094 37.7076 25.2519 36.0977 25.8308 34.6953L25.8762 34.5854L25.9613 34.3791C27.41 33.8584 28.4526 32.4378 28.4526 30.77C28.4526 28.6626 26.7886 26.9481 24.7434 26.9481C22.698 26.9481 21.0341 28.6626 21.0341 30.77C21.0341 31.8337 21.4585 32.7969 22.1414 33.4905C22.014 33.7685 21.8847 34.0457 21.7535 34.3218C21.129 35.6432 20.4214 37.1409 20.1537 38.8041C19.6221 42.1072 20.4796 44.7477 22.5682 46.2391C23.8355 47.1441 25.1226 47.5 26.4178 47.5C28.8564 47.5 31.3235 46.2376 33.7364 45.0026C35.4741 44.1134 37.2711 43.1938 39.046 42.7427C39.7065 42.5749 40.386 42.4739 41.1054 42.367C42.5322 42.1549 44.0075 41.9357 45.3143 41.1559C46.8291 40.2519 47.866 38.7354 48.1592 36.9955C48.4109 35.5018 48.108 34.0058 47.3693 32.7369C47.7252 32.1383 47.9132 31.4499 47.9125 30.7479" fill="white"/>
<path d="M69.5057 21.0455H73.1534V33.2159C73.1534 34.3409 72.9006 35.3182 72.3949 36.1477C71.8949 36.9773 71.1989 37.6165 70.3068 38.0653C69.4148 38.5142 68.3778 38.7386 67.196 38.7386C66.1449 38.7386 65.1903 38.554 64.3324 38.1847C63.4801 37.8097 62.804 37.2415 62.304 36.4801C61.804 35.7131 61.5568 34.75 61.5625 33.5909H65.2358C65.2472 34.0511 65.3409 34.446 65.517 34.7756C65.6989 35.0994 65.946 35.3494 66.2585 35.5256C66.5767 35.696 66.9517 35.7812 67.3835 35.7812C67.8381 35.7812 68.2216 35.6847 68.5341 35.4915C68.8523 35.2926 69.0938 35.0028 69.2585 34.6222C69.4233 34.2415 69.5057 33.7727 69.5057 33.2159V21.0455ZM76.2045 38.5V21.0455H87.9659V24.0881H79.8949V28.2472H87.3608V31.2898H79.8949V35.4574H88V38.5H76.2045ZM100.369 26.0653C100.3 25.3778 100.008 24.8437 99.4908 24.4631C98.9737 24.0824 98.272 23.892 97.3857 23.892C96.7834 23.892 96.2749 23.9773 95.8601 24.1477C95.4453 24.3125 95.1271 24.5426 94.9055 24.8381C94.6896 25.1335 94.5817 25.4688 94.5817 25.8438C94.5703 26.1562 94.6357 26.429 94.7777 26.6619C94.9254 26.8949 95.1271 27.0966 95.3828 27.267C95.6385 27.4318 95.9339 27.5767 96.2692 27.7017C96.6044 27.821 96.9624 27.9233 97.343 28.0085L98.9112 28.3835C99.6726 28.554 100.371 28.7812 101.008 29.0653C101.644 29.3494 102.195 29.6989 102.661 30.1136C103.127 30.5284 103.488 31.017 103.744 31.5795C104.005 32.142 104.138 32.7869 104.144 33.5142C104.138 34.5824 103.866 35.5085 103.326 36.2926C102.792 37.071 102.019 37.6761 101.008 38.108C100.002 38.5341 98.7891 38.7472 97.3686 38.7472C95.9595 38.7472 94.7322 38.5312 93.6868 38.0994C92.647 37.6676 91.8345 37.0284 91.2493 36.1818C90.6697 35.3295 90.3658 34.2756 90.3374 33.0199H93.9084C93.9482 33.6051 94.1158 34.0937 94.4112 34.4858C94.7124 34.8722 95.1129 35.1648 95.6129 35.3636C96.1186 35.5568 96.6896 35.6534 97.326 35.6534C97.951 35.6534 98.4936 35.5625 98.9538 35.3807C99.4197 35.1989 99.7805 34.946 100.036 34.6222C100.292 34.2983 100.42 33.9261 100.42 33.5057C100.42 33.1136 100.303 32.7841 100.07 32.517C99.843 32.25 99.5078 32.0227 99.0646 31.8352C98.6271 31.6477 98.0902 31.4773 97.4538 31.3239L95.5533 30.8466C94.0817 30.4886 92.9197 29.929 92.0675 29.1676C91.2152 28.4062 90.7919 27.3807 90.7976 26.0909C90.7919 25.0341 91.0732 24.1108 91.6413 23.321C92.2152 22.5312 93.0021 21.9148 94.0021 21.4716C95.0021 21.0284 96.1385 20.8068 97.4112 20.8068C98.7067 20.8068 99.8374 21.0284 100.803 21.4716C101.775 21.9148 102.531 22.5312 103.07 23.321C103.61 24.1108 103.888 25.0256 103.906 26.0653H100.369ZM105.962 24.0881V21.0455H120.297V24.0881H114.953V38.5H111.305V24.0881H105.962Z" fill="white"/>
</svg>
