<svg width="159" height="60" viewBox="0 0 159 60" fill="none" xmlns="http://www.w3.org/2000/svg">
<rect width="159" height="60" fill="#1D2025"/>
<path d="M43.9715 25.1542C43.6256 25.0414 43.2768 24.937 42.9254 24.841C42.9844 24.6118 43.0388 24.3854 43.087 24.163C43.8789 20.5107 43.3612 17.5683 41.5929 16.5995C39.8974 15.6708 37.1246 16.6392 34.3243 18.9546C34.0483 19.1832 33.7785 19.4184 33.515 19.66C33.3386 19.4994 33.1591 19.3418 32.9766 19.1875C30.0417 16.7118 27.0999 15.6684 25.3335 16.6399C23.6396 17.5715 23.138 20.3376 23.8509 23.799C23.9219 24.1418 24.002 24.4828 24.0911 24.8218C23.6747 24.9342 23.2729 25.0538 22.8884 25.1812C19.4474 26.321 17.25 28.1072 17.25 29.9599C17.25 31.8735 19.609 33.7928 23.1929 34.9566C23.4835 35.0506 23.7765 35.1376 24.0716 35.2177C23.9757 35.5828 23.8906 35.9503 23.8164 36.3199C23.1367 39.7212 23.6675 42.4219 25.3568 43.3476C27.1017 44.3036 30.0302 43.3211 32.8817 40.9528C33.113 40.7603 33.3391 40.5623 33.5599 40.359C33.8453 40.6206 34.1382 40.8745 34.4384 41.1206C37.2007 43.3787 39.9287 44.2906 41.6164 43.3623C43.3596 42.4036 43.9262 39.5023 43.1906 35.9725C43.1326 35.696 43.0677 35.4208 42.9957 35.1473C43.2014 35.0894 43.4032 35.0298 43.6 34.9678C47.3258 33.7951 49.75 31.899 49.75 29.9599C49.75 28.1004 47.4816 26.3022 43.9715 25.1542ZM43.1634 33.7159C42.9857 33.7717 42.8034 33.8256 42.6175 33.8781C42.2062 32.6409 41.6512 31.3255 40.9718 29.9663C41.62 28.6396 42.1538 27.3409 42.5535 26.1119C42.886 26.2033 43.2086 26.2997 43.5196 26.4013C46.5272 27.3851 48.3616 28.8393 48.3616 29.9599C48.3616 31.1535 46.3804 32.7031 43.1634 33.7159ZM41.8286 36.2287C42.1539 37.7895 42.2002 39.2007 41.9848 40.3039C41.7913 41.2952 41.4021 41.9561 40.9207 42.2208C39.8965 42.7841 37.7062 42.052 35.344 40.1207C35.0647 39.8919 34.7922 39.6558 34.5268 39.4127C35.4426 38.4612 36.3578 37.355 37.2511 36.1264C38.8223 35.994 40.3066 35.7774 41.6527 35.4818C41.7175 35.7294 41.7762 35.9785 41.8286 36.2287ZM28.33 42.1235C27.3293 42.4592 26.5323 42.4688 26.0505 42.2049C25.0254 41.6432 24.5992 39.4747 25.1805 36.566C25.2496 36.2222 25.3287 35.8804 25.4178 35.5409C26.749 35.8207 28.2226 36.0219 29.7974 36.1432C30.6967 37.3454 31.6384 38.4503 32.5873 39.4179C32.3857 39.6033 32.1792 39.7839 31.9682 39.9597C30.7072 41.0068 29.4436 41.7498 28.33 42.1235ZM23.6421 33.7085C22.0573 33.1938 20.7486 32.525 19.8515 31.7952C19.0454 31.1394 18.6385 30.4882 18.6385 29.9599C18.6385 28.8356 20.4028 27.4015 23.3454 26.4268C23.7025 26.3086 24.0763 26.197 24.4641 26.0923C24.8709 27.3491 25.4043 28.6632 26.0481 29.992C25.3959 31.3405 24.8549 32.6756 24.4442 33.9472C24.1748 33.8739 23.9074 33.7943 23.6421 33.7085ZM25.2135 23.5456C24.6027 20.58 25.0084 18.343 26.0292 17.7815C27.1164 17.1835 29.5207 18.0362 32.0548 20.1739C32.22 20.3136 32.3826 20.4562 32.5424 20.6015C31.5981 21.5648 30.6651 22.6616 29.7738 23.8566C28.2453 23.9912 26.7821 24.2074 25.437 24.497C25.3541 24.1817 25.2796 23.8644 25.2135 23.5456ZM39.2326 26.8346C38.9148 26.3132 38.5853 25.7983 38.2442 25.2904C39.2812 25.415 40.2747 25.5803 41.2077 25.7825C40.9276 26.6354 40.5785 27.5271 40.1676 28.4414C39.8672 27.8999 39.5555 27.3642 39.2326 26.8346ZM33.5156 21.5443C34.156 22.2035 34.7973 22.9394 35.4282 23.7378C34.1485 23.6804 32.8667 23.6802 31.5869 23.7371C32.2184 22.946 32.8652 22.2111 33.5156 21.5443ZM27.762 26.8435C27.4431 27.3689 27.1372 27.9013 26.8445 28.4402C26.4403 27.5292 26.0943 26.6334 25.8118 25.7684C26.7391 25.5713 27.7279 25.4101 28.7583 25.2878C28.4134 25.7989 28.0812 26.3177 27.762 26.8435ZM28.7879 34.7259C27.7234 34.613 26.7197 34.4602 25.7927 34.2684C26.0796 33.3879 26.4332 32.473 26.8461 31.5425C27.14 32.0818 27.4472 32.6145 27.7674 33.1402C28.0967 33.6805 28.4377 34.2098 28.7879 34.7259ZM33.554 38.4685C32.8958 37.7941 32.2395 37.0478 31.5985 36.2453C32.2208 36.2684 32.8552 36.2802 33.5 36.2802C34.1624 36.2802 34.8173 36.2661 35.4618 36.2389C34.8289 37.0559 34.19 37.8032 33.554 38.4685ZM40.1807 31.495C40.6151 32.4358 40.9812 33.3458 41.2719 34.2112C40.3297 34.4155 39.3123 34.5801 38.2403 34.7022C38.5838 34.1849 38.9165 33.6611 39.238 33.1311C39.565 32.5925 39.8793 32.0469 40.1807 31.495ZM38.0354 32.4721C37.5431 33.2846 37.0231 34.0817 36.4763 34.862C35.4857 34.9287 34.493 34.9618 33.5 34.9613C32.4886 34.9613 31.5048 34.9314 30.5575 34.873C29.9964 34.0944 29.4665 33.296 28.9689 32.4793C28.4737 31.667 28.0113 30.8371 27.5823 29.9914C28.0102 29.1455 28.4713 28.3152 28.9649 27.5023L28.9647 27.5024C29.4581 26.6893 29.9837 25.8942 30.5406 25.119C31.5071 25.0495 32.4982 25.0133 33.4999 25.0133C34.5061 25.0133 35.4986 25.0499 36.4649 25.1198C37.0161 25.8939 37.5384 26.6862 38.0308 27.4953C38.526 28.3065 38.9933 29.1327 39.4319 29.9727C38.9978 30.8213 38.532 31.655 38.0354 32.4721ZM40.8995 17.7422C41.9877 18.3385 42.411 20.7432 41.7272 23.8967C41.6835 24.0978 41.6345 24.3028 41.5812 24.5106C40.2327 24.2148 38.7686 23.995 37.2356 23.8583C36.3426 22.6501 35.4172 21.5517 34.4883 20.6008C34.7318 20.3778 34.981 20.1606 35.2358 19.9495C37.6352 17.9657 39.8777 17.1824 40.8995 17.7422ZM33.5 27.2027C35.1028 27.2027 36.4021 28.4372 36.4021 29.9599C36.4021 31.4827 35.1028 32.7172 33.5 32.7172C31.8972 32.7172 30.5979 31.4827 30.5979 29.9599C30.5979 28.4372 31.8972 27.2027 33.5 27.2027Z" fill="#00D8FF"/>
<path d="M62.517 38.5V21.0455H69.4034C70.7216 21.0455 71.8466 21.2812 72.7784 21.7528C73.7159 22.2187 74.429 22.8807 74.9176 23.7386C75.4119 24.5909 75.6591 25.5937 75.6591 26.7472C75.6591 27.9062 75.4091 28.9034 74.9091 29.7386C74.4091 30.5682 73.6847 31.2045 72.7358 31.6477C71.7926 32.0909 70.6506 32.3125 69.3097 32.3125H64.6989V29.3466H68.7131C69.4176 29.3466 70.0028 29.25 70.4688 29.0568C70.9347 28.8636 71.2813 28.5739 71.5085 28.1875C71.7415 27.8011 71.858 27.321 71.858 26.7472C71.858 26.1676 71.7415 25.679 71.5085 25.2812C71.2813 24.8835 70.9318 24.5824 70.4602 24.3778C69.9943 24.1676 69.4063 24.0625 68.696 24.0625H66.2074V38.5H62.517ZM71.9432 30.5568L76.2812 38.5H72.2074L67.9631 30.5568H71.9432ZM78.267 38.5V21.0455H90.0284V24.0881H81.9574V28.2472H89.4233V31.2898H81.9574V35.4574H90.0625V38.5H78.267ZM95.9709 38.5H92.0163L98.0419 21.0455H102.798L108.815 38.5H104.86L100.488 25.0341H100.352L95.9709 38.5ZM95.7237 31.6392H105.065V34.5199H95.7237V31.6392ZM125.496 27.1562H121.763C121.695 26.6733 121.555 26.2443 121.345 25.8693C121.135 25.4886 120.865 25.1648 120.536 24.8977C120.206 24.6307 119.825 24.4261 119.393 24.2841C118.967 24.142 118.504 24.071 118.004 24.071C117.101 24.071 116.314 24.2955 115.643 24.7443C114.973 25.1875 114.453 25.8352 114.084 26.6875C113.714 27.5341 113.53 28.5625 113.53 29.7727C113.53 31.017 113.714 32.0625 114.084 32.9091C114.459 33.7557 114.982 34.3949 115.652 34.8267C116.322 35.2585 117.098 35.4744 117.979 35.4744C118.473 35.4744 118.93 35.4091 119.351 35.2784C119.777 35.1477 120.155 34.9574 120.484 34.7074C120.814 34.4517 121.087 34.142 121.303 33.7784C121.524 33.4148 121.678 33 121.763 32.5341L125.496 32.5511C125.399 33.3523 125.158 34.125 124.771 34.8693C124.391 35.608 123.876 36.2699 123.229 36.8551C122.587 37.4347 121.82 37.8949 120.928 38.2358C120.041 38.571 119.038 38.7386 117.919 38.7386C116.362 38.7386 114.97 38.3864 113.743 37.6818C112.521 36.9773 111.555 35.9574 110.845 34.6222C110.141 33.2869 109.788 31.6705 109.788 29.7727C109.788 27.8693 110.146 26.25 110.862 24.9148C111.578 23.5795 112.55 22.5625 113.777 21.8636C115.004 21.1591 116.385 20.8068 117.919 20.8068C118.93 20.8068 119.868 20.9489 120.732 21.233C121.601 21.517 122.371 21.9318 123.041 22.4773C123.712 23.017 124.257 23.679 124.678 24.4631C125.104 25.2472 125.376 26.1449 125.496 27.1562ZM127.477 24.0881V21.0455H141.812V24.0881H136.469V38.5H132.821V24.0881H127.477Z" fill="white"/>
</svg>
