<svg width="160" height="60" viewBox="0 0 160 60" fill="none" xmlns="http://www.w3.org/2000/svg">
<rect width="160" height="60" fill="#4E387A"/>
<path d="M39.7878 35.5787C40.8941 35.4637 41.7341 34.5 41.6966 33.3437C41.6779 32.788 41.4449 32.261 41.0465 31.8731C40.6481 31.4852 40.1151 31.2664 39.5591 31.2625H39.4816C38.2978 31.3 37.3816 32.3025 37.4191 33.4975C37.4591 34.0762 37.6878 34.5763 38.0316 34.9225C36.7328 37.5063 34.7478 39.3937 31.7691 40.9737C29.7466 42.0537 27.6466 42.4387 25.5478 42.1687C23.8291 41.9375 22.4928 41.1663 21.6528 39.895C20.4316 38.0075 20.3178 35.9638 21.3478 33.9213C22.0728 32.4575 23.2191 31.3775 23.9441 30.8387C23.7474 30.1916 23.5818 29.5354 23.4478 28.8725C17.9116 32.92 18.4853 38.3925 20.1628 40.975C21.4228 42.9025 23.9803 44.0975 26.8066 44.0975C27.5781 44.1021 28.3472 44.0114 29.0966 43.8275C33.9841 42.865 37.6866 39.935 39.7866 35.58M46.5053 30.8013C43.6041 27.3713 39.3278 25.4825 34.4416 25.4825H33.8303C33.6559 25.1358 33.3888 24.8442 33.0587 24.6401C32.7286 24.436 32.3484 24.3274 31.9603 24.3262H31.8828C30.7003 24.365 29.7828 25.3675 29.8216 26.5625C29.8591 27.7188 30.8141 28.6425 31.9591 28.6425H32.0366C32.4398 28.6218 32.8291 28.4879 33.1598 28.2562C33.4905 28.0246 33.7493 27.7044 33.9066 27.3325H34.5941C37.4953 27.3325 40.2441 28.18 42.7253 29.8375C44.6341 31.11 46.0091 32.7662 46.7716 34.7712C47.4216 36.3887 47.3841 37.9688 46.6966 39.3188C45.6266 41.3613 43.8328 42.4788 41.4653 42.4788C39.9391 42.4788 38.4878 42.0162 37.7241 41.6687C37.1746 42.1591 36.6014 42.6221 36.0066 43.0563C37.6478 43.8275 39.3278 44.2512 40.9316 44.2512C44.5966 44.2512 47.3066 42.2087 48.3378 40.1662C49.4441 37.9312 49.3678 34.0775 46.5053 30.8013ZM27.1128 36.2337C27.1503 37.39 28.1053 38.315 29.2503 38.315H29.3266C30.5103 38.2775 31.4266 37.275 31.3891 36.08C31.3704 35.5242 31.1374 34.9973 30.739 34.6093C30.3406 34.2214 29.8076 34.0026 29.2516 33.9987H29.1741C29.0832 33.9916 28.9919 34.0044 28.9066 34.0363C27.3416 31.4163 26.6928 28.565 26.9216 25.4812C27.0741 23.1687 27.8378 21.165 29.1741 19.5075C30.2816 18.0825 32.4191 17.3888 33.8703 17.35C37.9166 17.2725 39.6341 22.36 39.7491 24.4025C40.2453 24.5175 41.0853 24.7875 41.6578 24.98C41.1991 18.7375 37.3828 15.5 33.7166 15.5C30.2816 15.5 27.1128 18.005 25.8528 21.705C24.0966 26.6375 25.2416 31.3775 27.3803 35.1163C27.1891 35.3863 27.0741 35.81 27.1128 36.2337Z" fill="white"/>
<path d="M62.517 38.5V21.0455H69.4034C70.7216 21.0455 71.8466 21.2812 72.7784 21.7528C73.7159 22.2187 74.429 22.8807 74.9176 23.7386C75.4119 24.5909 75.6591 25.5937 75.6591 26.7472C75.6591 27.9062 75.4091 28.9034 74.9091 29.7386C74.4091 30.5682 73.6847 31.2045 72.7358 31.6477C71.7926 32.0909 70.6506 32.3125 69.3097 32.3125H64.6989V29.3466H68.7131C69.4176 29.3466 70.0028 29.25 70.4688 29.0568C70.9347 28.8636 71.2813 28.5739 71.5085 28.1875C71.7415 27.8011 71.858 27.321 71.858 26.7472C71.858 26.1676 71.7415 25.679 71.5085 25.2812C71.2813 24.8835 70.9318 24.5824 70.4602 24.3778C69.9943 24.1676 69.4063 24.0625 68.696 24.0625H66.2074V38.5H62.517ZM71.9432 30.5568L76.2812 38.5H72.2074L67.9631 30.5568H71.9432ZM78.267 38.5V21.0455H90.0284V24.0881H81.9574V28.2472H89.4233V31.2898H81.9574V35.4574H90.0625V38.5H78.267ZM99.1499 38.5H92.9624V21.0455H99.201C100.957 21.0455 102.468 21.3949 103.735 22.0938C105.002 22.7869 105.977 23.7841 106.658 25.0852C107.346 26.3864 107.69 27.9432 107.69 29.7557C107.69 31.5739 107.346 33.1364 106.658 34.4432C105.977 35.75 104.996 36.7528 103.718 37.4517C102.445 38.1506 100.923 38.5 99.1499 38.5ZM96.6527 35.3381H98.9964C100.087 35.3381 101.005 35.1449 101.749 34.7585C102.499 34.3665 103.062 33.7614 103.437 32.9432C103.817 32.1193 104.008 31.0568 104.008 29.7557C104.008 28.4659 103.817 27.4119 103.437 26.5938C103.062 25.7756 102.502 25.1733 101.758 24.7869C101.013 24.4006 100.096 24.2074 99.005 24.2074H96.6527V35.3381ZM121.205 21.0455H124.895V32.3807C124.895 33.6534 124.591 34.767 123.983 35.7216C123.381 36.6761 122.537 37.4205 121.452 37.9545C120.366 38.483 119.102 38.7472 117.659 38.7472C116.21 38.7472 114.943 38.483 113.858 37.9545C112.773 37.4205 111.929 36.6761 111.327 35.7216C110.724 34.767 110.423 33.6534 110.423 32.3807V21.0455H114.114V32.0653C114.114 32.7301 114.259 33.321 114.548 33.8381C114.844 34.3551 115.259 34.7614 115.793 35.0568C116.327 35.3523 116.949 35.5 117.659 35.5C118.375 35.5 118.997 35.3523 119.526 35.0568C120.06 34.7614 120.472 34.3551 120.761 33.8381C121.057 33.321 121.205 32.7301 121.205 32.0653V21.0455ZM131.391 21.0455L134.911 26.9943H135.048L138.585 21.0455H142.752L137.425 29.7727L142.871 38.5H138.627L135.048 32.5426H134.911L131.332 38.5H127.104L132.567 29.7727L127.207 21.0455H131.391Z" fill="white"/>
</svg>
