<svg width="226" height="60" viewBox="0 0 226 60" fill="none" xmlns="http://www.w3.org/2000/svg">
<rect width="226" height="60" fill="#0771C1"/>
<rect width="32" height="32" transform="translate(16 14)" fill="white"/>
<path d="M21.4587 28.4698L21.4486 29.7763H25.6009V41.575H28.5381V29.7763H32.6904V28.4951C32.6904 27.7862 32.6753 27.1937 32.655 27.1785C32.6398 27.1583 30.1129 27.1481 27.0493 27.1532L21.474 27.1684L21.4587 28.4698ZM40.1459 27.1313C40.9561 27.3339 41.5739 27.6934 42.1411 28.2808C42.4348 28.5948 42.8702 29.1671 42.9057 29.3038C42.9158 29.3443 41.5283 30.276 40.6878 30.7976C40.6574 30.8179 40.5357 30.6862 40.399 30.4836C39.9889 29.8861 39.5585 29.6278 38.9001 29.5823C37.933 29.5164 37.3101 30.0228 37.3152 30.8685C37.3152 31.1166 37.3506 31.2634 37.4519 31.466C37.6645 31.9065 38.0596 32.1699 39.3003 32.7066C41.584 33.6891 42.5613 34.3372 43.169 35.2588C43.8476 36.2867 43.9995 37.9275 43.5387 39.1478C43.0323 40.4745 41.7764 41.3759 40.0091 41.6747C39.4623 41.7709 38.1659 41.7557 37.5786 41.6494C36.2974 41.4215 35.0821 40.7886 34.3326 39.9581C34.0389 39.634 33.4667 38.7883 33.5022 38.7275C33.5172 38.7073 33.649 38.6263 33.7958 38.5402C33.9376 38.4592 34.4744 38.1503 34.9808 37.8566L35.8973 37.3248L36.0897 37.6084C36.3582 38.0186 36.9455 38.5807 37.3 38.768C38.3178 39.3049 39.7155 39.2288 40.4041 38.6111C40.6979 38.3427 40.8194 38.0642 40.8194 37.654C40.8194 37.2843 40.7738 37.1223 40.5814 36.8438C40.3332 36.4894 39.8269 36.1905 38.3887 35.5677C36.743 34.8587 36.034 34.4182 35.3859 33.7194C35.0112 33.3143 34.6566 32.6661 34.5098 32.1242C34.3883 31.6736 34.3579 30.5443 34.4541 30.0886C34.7933 28.4986 35.9935 27.3896 37.7254 27.0604C38.2875 26.9541 39.5939 26.9946 40.1459 27.1313Z" fill="#0771C1"/>
<path d="M58.8523 24.0881V21.0455H73.1875V24.0881H67.8438V38.5H64.196V24.0881H58.8523ZM74.5256 21.0455H78.6591L82.6392 28.5625H82.8097L86.7898 21.0455H90.9233L84.5568 32.3295V38.5H80.892V32.3295L74.5256 21.0455ZM92.9389 38.5V21.0455H99.8253C101.149 21.0455 102.277 21.2983 103.209 21.804C104.141 22.304 104.851 23 105.339 23.892C105.834 24.7784 106.081 25.8011 106.081 26.9602C106.081 28.1193 105.831 29.142 105.331 30.0284C104.831 30.9148 104.107 31.6051 103.158 32.0994C102.214 32.5937 101.072 32.8409 99.7315 32.8409H95.3423V29.8835H99.1349C99.8452 29.8835 100.43 29.7614 100.891 29.517C101.357 29.267 101.703 28.9233 101.93 28.4858C102.163 28.0426 102.28 27.5341 102.28 26.9602C102.28 26.3807 102.163 25.875 101.93 25.4432C101.703 25.0057 101.357 24.6676 100.891 24.429C100.425 24.1847 99.8338 24.0625 99.1179 24.0625H96.6293V38.5H92.9389ZM108.478 38.5V21.0455H120.239V24.0881H112.168V28.2472H119.634V31.2898H112.168V35.4574H120.273V38.5H108.478ZM132.642 26.0653C132.574 25.3778 132.281 24.8437 131.764 24.4631C131.247 24.0824 130.545 23.892 129.659 23.892C129.057 23.892 128.548 23.9773 128.134 24.1477C127.719 24.3125 127.401 24.5426 127.179 24.8381C126.963 25.1335 126.855 25.4688 126.855 25.8438C126.844 26.1562 126.909 26.429 127.051 26.6619C127.199 26.8949 127.401 27.0966 127.656 27.267C127.912 27.4318 128.207 27.5767 128.543 27.7017C128.878 27.821 129.236 27.9233 129.616 28.0085L131.185 28.3835C131.946 28.554 132.645 28.7812 133.281 29.0653C133.918 29.3494 134.469 29.6989 134.935 30.1136C135.401 30.5284 135.761 31.017 136.017 31.5795C136.278 32.142 136.412 32.7869 136.418 33.5142C136.412 34.5824 136.139 35.5085 135.599 36.2926C135.065 37.071 134.293 37.6761 133.281 38.108C132.276 38.5341 131.063 38.7472 129.642 38.7472C128.233 38.7472 127.006 38.5312 125.96 38.0994C124.92 37.6676 124.108 37.0284 123.523 36.1818C122.943 35.3295 122.639 34.2756 122.611 33.0199H126.182C126.222 33.6051 126.389 34.0937 126.685 34.4858C126.986 34.8722 127.386 35.1648 127.886 35.3636C128.392 35.5568 128.963 35.6534 129.599 35.6534C130.224 35.6534 130.767 35.5625 131.227 35.3807C131.693 35.1989 132.054 34.946 132.31 34.6222C132.565 34.2983 132.693 33.9261 132.693 33.5057C132.693 33.1136 132.577 32.7841 132.344 32.517C132.116 32.25 131.781 32.0227 131.338 31.8352C130.901 31.6477 130.364 31.4773 129.727 31.3239L127.827 30.8466C126.355 30.4886 125.193 29.929 124.341 29.1676C123.489 28.4062 123.065 27.3807 123.071 26.0909C123.065 25.0341 123.347 24.1108 123.915 23.321C124.489 22.5312 125.276 21.9148 126.276 21.4716C127.276 21.0284 128.412 20.8068 129.685 20.8068C130.98 20.8068 132.111 21.0284 133.077 21.4716C134.048 21.9148 134.804 22.5312 135.344 23.321C135.884 24.1108 136.162 25.0256 136.179 26.0653H132.642ZM154.3 27.1562H150.567C150.499 26.6733 150.36 26.2443 150.15 25.8693C149.94 25.4886 149.67 25.1648 149.34 24.8977C149.011 24.6307 148.63 24.4261 148.198 24.2841C147.772 24.142 147.309 24.071 146.809 24.071C145.906 24.071 145.119 24.2955 144.448 24.7443C143.778 25.1875 143.258 25.8352 142.888 26.6875C142.519 27.5341 142.335 28.5625 142.335 29.7727C142.335 31.017 142.519 32.0625 142.888 32.9091C143.263 33.7557 143.786 34.3949 144.457 34.8267C145.127 35.2585 145.903 35.4744 146.783 35.4744C147.278 35.4744 147.735 35.4091 148.156 35.2784C148.582 35.1477 148.96 34.9574 149.289 34.7074C149.619 34.4517 149.891 34.142 150.107 33.7784C150.329 33.4148 150.482 33 150.567 32.5341L154.3 32.5511C154.204 33.3523 153.962 34.125 153.576 34.8693C153.195 35.608 152.681 36.2699 152.033 36.8551C151.391 37.4347 150.624 37.8949 149.732 38.2358C148.846 38.571 147.843 38.7386 146.724 38.7386C145.167 38.7386 143.775 38.3864 142.548 37.6818C141.326 36.9773 140.36 35.9574 139.65 34.6222C138.945 33.2869 138.593 31.6705 138.593 29.7727C138.593 27.8693 138.951 26.25 139.667 24.9148C140.383 23.5795 141.354 22.5625 142.582 21.8636C143.809 21.1591 145.19 20.8068 146.724 20.8068C147.735 20.8068 148.673 20.9489 149.536 21.233C150.406 21.517 151.175 21.9318 151.846 22.4773C152.516 23.017 153.062 23.679 153.482 24.4631C153.908 25.2472 154.181 26.1449 154.3 27.1562ZM156.947 38.5V21.0455H163.833C165.151 21.0455 166.276 21.2812 167.208 21.7528C168.146 22.2187 168.859 22.8807 169.347 23.7386C169.842 24.5909 170.089 25.5937 170.089 26.7472C170.089 27.9062 169.839 28.9034 169.339 29.7386C168.839 30.5682 168.114 31.2045 167.165 31.6477C166.222 32.0909 165.08 32.3125 163.739 32.3125H159.129V29.3466H163.143C163.847 29.3466 164.433 29.25 164.898 29.0568C165.364 28.8636 165.711 28.5739 165.938 28.1875C166.171 27.8011 166.288 27.321 166.288 26.7472C166.288 26.1676 166.171 25.679 165.938 25.2812C165.711 24.8835 165.362 24.5824 164.89 24.3778C164.424 24.1676 163.836 24.0625 163.126 24.0625H160.637V38.5H156.947ZM166.373 30.5568L170.711 38.5H166.637L162.393 30.5568H166.373ZM176.387 21.0455V38.5H172.697V21.0455H176.387ZM179.423 38.5V21.0455H186.31C187.634 21.0455 188.761 21.2983 189.693 21.804C190.625 22.304 191.335 23 191.824 23.892C192.318 24.7784 192.565 25.8011 192.565 26.9602C192.565 28.1193 192.315 29.142 191.815 30.0284C191.315 30.9148 190.591 31.6051 189.642 32.0994C188.699 32.5937 187.557 32.8409 186.216 32.8409H181.827V29.8835H185.619C186.33 29.8835 186.915 29.7614 187.375 29.517C187.841 29.267 188.188 28.9233 188.415 28.4858C188.648 28.0426 188.764 27.5341 188.764 26.9602C188.764 26.3807 188.648 25.875 188.415 25.4432C188.188 25.0057 187.841 24.6676 187.375 24.429C186.909 24.1847 186.318 24.0625 185.602 24.0625H183.114V38.5H179.423ZM194.298 24.0881V21.0455H208.633V24.0881H203.289V38.5H199.641V24.0881H194.298Z" fill="white"/>
</svg>
