<svg width="133" height="60" viewBox="0 0 133 60" fill="none" xmlns="http://www.w3.org/2000/svg">
<rect width="133" height="60" fill="#5866F9"/>
<g clip-path="url(#clip0_10_193)">
<path d="M49.8944 16.9836L40.375 18.712L42.0291 13L28.8189 15.5784L28.6131 19.0401L17.0394 16.9795C16.2422 16.9333 15.7778 17.5034 16.1069 18.2951L32.8559 47.5518C33.2164 48.1379 34.0463 48.1608 34.4103 47.5518L50.8336 18.2923C51.2042 17.6309 50.6363 16.8555 49.8944 16.9836ZM33.6297 46.7497L17.2264 18.0966L28.5494 20.1126L28.0156 29.0926L32.657 28.0257L31.3629 34.3382L34.8885 33.2713L33.1389 41.7066C33.0517 42.2582 33.7731 42.5517 34.1299 41.7621L44.4391 21.2685L39.3514 22.2466L40.0435 19.8567L49.7138 18.1009L33.6297 46.7497Z" fill="white"/>
</g>
<path d="M65.6705 21.0455L69.8892 34.3068H70.0511L74.2784 21.0455H78.3693L72.3523 38.5H67.5966L61.571 21.0455H65.6705ZM84.1605 21.0455V38.5H80.4702V21.0455H84.1605ZM86.532 24.0881V21.0455H100.867V24.0881H95.5234V38.5H91.8757V24.0881H86.532ZM103.228 38.5V21.0455H114.989V24.0881H106.918V28.2472H114.384V31.2898H106.918V35.4574H115.023V38.5H103.228Z" fill="white"/>
<defs>
<clipPath id="clip0_10_193">
<rect width="35" height="35" fill="white" transform="translate(16 13)"/>
</clipPath>
</defs>
</svg>
