<svg width="157" height="60" viewBox="0 0 157 60" fill="none" xmlns="http://www.w3.org/2000/svg">
<rect width="157" height="60" fill="#2F4153"/>
<path d="M16 15H22.125L33.5 36.3333L44.875 15H51L33.5 47L16 15ZM23.875 15H29.125L33.5 23.1422L37.875 15H43.125L33.5 32.92L23.875 15Z" fill="white"/>
<path d="M65.6705 21.0455L69.8892 34.3068H70.0511L74.2784 21.0455H78.3693L72.3523 38.5H67.5966L61.571 21.0455H65.6705ZM91.2514 21.0455H94.9418V32.3807C94.9418 33.6534 94.6378 34.767 94.0298 35.7216C93.4276 36.6761 92.5838 37.4205 91.4986 37.9545C90.4134 38.483 89.1491 38.7472 87.706 38.7472C86.2571 38.7472 84.9901 38.483 83.9048 37.9545C82.8196 37.4205 81.9759 36.6761 81.3736 35.7216C80.7713 34.767 80.4702 33.6534 80.4702 32.3807V21.0455H84.1605V32.0653C84.1605 32.7301 84.3054 33.321 84.5952 33.8381C84.8906 34.3551 85.3054 34.7614 85.8395 35.0568C86.3736 35.3523 86.9957 35.5 87.706 35.5C88.4219 35.5 89.044 35.3523 89.5724 35.0568C90.1065 34.7614 90.5185 34.3551 90.8082 33.8381C91.1037 33.321 91.2514 32.7301 91.2514 32.0653V21.0455ZM97.978 38.5V21.0455H109.739V24.0881H101.668V28.2472H109.134V31.2898H101.668V35.4574H109.773V38.5H97.978ZM119.662 21.0455H123.31V33.2159C123.31 34.3409 123.057 35.3182 122.551 36.1477C122.051 36.9773 121.355 37.6165 120.463 38.0653C119.571 38.5142 118.534 38.7386 117.352 38.7386C116.301 38.7386 115.347 38.554 114.489 38.1847C113.636 37.8097 112.96 37.2415 112.46 36.4801C111.96 35.7131 111.713 34.75 111.719 33.5909H115.392C115.403 34.0511 115.497 34.446 115.673 34.7756C115.855 35.0994 116.102 35.3494 116.415 35.5256C116.733 35.696 117.108 35.7812 117.54 35.7812C117.994 35.7812 118.378 35.6847 118.69 35.4915C119.009 35.2926 119.25 35.0028 119.415 34.6222C119.58 34.2415 119.662 33.7727 119.662 33.2159V21.0455ZM135.83 26.0653C135.761 25.3778 135.469 24.8437 134.952 24.4631C134.435 24.0824 133.733 23.892 132.847 23.892C132.244 23.892 131.736 23.9773 131.321 24.1477C130.906 24.3125 130.588 24.5426 130.366 24.8381C130.151 25.1335 130.043 25.4688 130.043 25.8438C130.031 26.1562 130.097 26.429 130.239 26.6619C130.386 26.8949 130.588 27.0966 130.844 27.267C131.099 27.4318 131.395 27.5767 131.73 27.7017C132.065 27.821 132.423 27.9233 132.804 28.0085L134.372 28.3835C135.134 28.554 135.832 28.7812 136.469 29.0653C137.105 29.3494 137.656 29.6989 138.122 30.1136C138.588 30.5284 138.949 31.017 139.205 31.5795C139.466 32.142 139.599 32.7869 139.605 33.5142C139.599 34.5824 139.327 35.5085 138.787 36.2926C138.253 37.071 137.48 37.6761 136.469 38.108C135.463 38.5341 134.25 38.7472 132.83 38.7472C131.42 38.7472 130.193 38.5312 129.148 38.0994C128.108 37.6676 127.295 37.0284 126.71 36.1818C126.131 35.3295 125.827 34.2756 125.798 33.0199H129.369C129.409 33.6051 129.577 34.0937 129.872 34.4858C130.173 34.8722 130.574 35.1648 131.074 35.3636C131.58 35.5568 132.151 35.6534 132.787 35.6534C133.412 35.6534 133.955 35.5625 134.415 35.3807C134.881 35.1989 135.241 34.946 135.497 34.6222C135.753 34.2983 135.881 33.9261 135.881 33.5057C135.881 33.1136 135.764 32.7841 135.531 32.517C135.304 32.25 134.969 32.0227 134.526 31.8352C134.088 31.6477 133.551 31.4773 132.915 31.3239L131.014 30.8466C129.543 30.4886 128.381 29.929 127.528 29.1676C126.676 28.4062 126.253 27.3807 126.259 26.0909C126.253 25.0341 126.534 24.1108 127.102 23.321C127.676 22.5312 128.463 21.9148 129.463 21.4716C130.463 21.0284 131.599 20.8068 132.872 20.8068C134.168 20.8068 135.298 21.0284 136.264 21.4716C137.236 21.9148 137.991 22.5312 138.531 23.321C139.071 24.1108 139.349 25.0256 139.366 26.0653H135.83Z" fill="white"/>
</svg>
