<svg width="198" height="60" viewBox="0 0 198 60" fill="none" xmlns="http://www.w3.org/2000/svg">
<rect width="198" height="60" fill="#83D1F6"/>
<path d="M47.2313 39.2587L34.085 46.7012V40.9L42.275 36.3988L47.2313 39.2587ZM48.125 38.4462V22.8787L43.315 25.625V35.6675L48.125 38.4462ZM19.7687 39.2587L32.915 46.685V40.9L24.725 36.3988L19.7687 39.2587ZM18.875 38.4462V22.8787L23.685 25.625V35.6675L18.875 38.4462ZM19.4437 21.8713L32.915 14.25V19.8562L24.2862 24.6012L24.205 24.6338L19.4437 21.8713ZM47.5562 21.8713L34.085 14.25V19.8562L42.7138 24.6175L42.7787 24.65L47.5562 21.8713ZM32.915 39.5838L24.8388 35.1313V26.34L32.915 31.0038V39.5838ZM34.085 39.5838L42.1612 35.1475V26.34L34.085 31.0038V39.5838ZM25.375 25.3163L33.5 20.8475L41.625 25.3163L33.5 29.9962L25.375 25.3163Z" fill="black"/>
<path d="M66.446 38.5L61.4517 21.0455H65.483L68.3722 33.1733H68.517L71.7045 21.0455H75.1562L78.3352 33.1989H78.4886L81.3778 21.0455H85.4091L80.4148 38.5H76.8182L73.4943 27.0881H73.358L70.0426 38.5H66.446ZM87.3842 38.5V21.0455H99.1456V24.0881H91.0746V28.2472H98.5405V31.2898H91.0746V35.4574H99.1797V38.5H87.3842ZM102.08 38.5V21.0455H109.068C110.352 21.0455 111.423 21.2358 112.281 21.6165C113.139 21.9972 113.784 22.5256 114.216 23.2017C114.648 23.8722 114.864 24.6449 114.864 25.5199C114.864 26.2017 114.727 26.8011 114.455 27.3182C114.182 27.8295 113.807 28.25 113.33 28.5795C112.858 28.9034 112.318 29.1335 111.71 29.2699V29.4403C112.375 29.4687 112.997 29.6562 113.577 30.0028C114.162 30.3494 114.636 30.8352 115 31.4602C115.364 32.0795 115.545 32.8182 115.545 33.6761C115.545 34.6023 115.315 35.429 114.855 36.1562C114.401 36.8778 113.727 37.4489 112.835 37.8693C111.943 38.2898 110.844 38.5 109.537 38.5H102.08ZM105.77 35.483H108.778C109.807 35.483 110.557 35.2869 111.028 34.8949C111.5 34.4972 111.736 33.9687 111.736 33.3097C111.736 32.8267 111.619 32.4006 111.386 32.0312C111.153 31.6619 110.821 31.3722 110.389 31.1619C109.963 30.9517 109.455 30.8466 108.864 30.8466H105.77V35.483ZM105.77 28.3494H108.506C109.011 28.3494 109.46 28.2614 109.852 28.0852C110.25 27.9034 110.563 27.6477 110.79 27.3182C111.023 26.9886 111.139 26.5938 111.139 26.1335C111.139 25.5028 110.915 24.9943 110.466 24.608C110.023 24.2216 109.392 24.0284 108.574 24.0284H105.77V28.3494ZM117.947 38.5V21.0455H124.833C126.157 21.0455 127.285 21.2983 128.217 21.804C129.148 22.304 129.859 23 130.347 23.892C130.842 24.7784 131.089 25.8011 131.089 26.9602C131.089 28.1193 130.839 29.142 130.339 30.0284C129.839 30.9148 129.114 31.6051 128.165 32.0994C127.222 32.5937 126.08 32.8409 124.739 32.8409H120.35V29.8835H124.143C124.853 29.8835 125.438 29.7614 125.898 29.517C126.364 29.267 126.711 28.9233 126.938 28.4858C127.171 28.0426 127.288 27.5341 127.288 26.9602C127.288 26.3807 127.171 25.875 126.938 25.4432C126.711 25.0057 126.364 24.6676 125.898 24.429C125.433 24.1847 124.842 24.0625 124.126 24.0625H121.637V38.5H117.947ZM134.479 38.5H130.524L136.55 21.0455H141.305L147.322 38.5H143.368L138.996 25.0341H138.859L134.479 38.5ZM134.232 31.6392H143.572V34.5199H134.232V31.6392ZM164.004 27.1562H160.271C160.202 26.6733 160.063 26.2443 159.853 25.8693C159.643 25.4886 159.373 25.1648 159.043 24.8977C158.714 24.6307 158.333 24.4261 157.901 24.2841C157.475 24.142 157.012 24.071 156.512 24.071C155.609 24.071 154.822 24.2955 154.151 24.7443C153.481 25.1875 152.961 25.8352 152.592 26.6875C152.222 27.5341 152.038 28.5625 152.038 29.7727C152.038 31.017 152.222 32.0625 152.592 32.9091C152.967 33.7557 153.489 34.3949 154.16 34.8267C154.83 35.2585 155.606 35.4744 156.487 35.4744C156.981 35.4744 157.438 35.4091 157.859 35.2784C158.285 35.1477 158.663 34.9574 158.992 34.7074C159.322 34.4517 159.594 34.142 159.81 33.7784C160.032 33.4148 160.185 33 160.271 32.5341L164.004 32.5511C163.907 33.3523 163.665 34.125 163.279 34.8693C162.898 35.608 162.384 36.2699 161.737 36.8551C161.094 37.4347 160.327 37.8949 159.435 38.2358C158.549 38.571 157.546 38.7386 156.427 38.7386C154.87 38.7386 153.478 38.3864 152.251 37.6818C151.029 36.9773 150.063 35.9574 149.353 34.6222C148.648 33.2869 148.296 31.6705 148.296 29.7727C148.296 27.8693 148.654 26.25 149.37 24.9148C150.086 23.5795 151.058 22.5625 152.285 21.8636C153.512 21.1591 154.893 20.8068 156.427 20.8068C157.438 20.8068 158.376 20.9489 159.239 21.233C160.109 21.517 160.879 21.9318 161.549 22.4773C162.219 23.017 162.765 23.679 163.185 24.4631C163.612 25.2472 163.884 26.1449 164.004 27.1562ZM166.65 38.5V21.0455H170.34V28.7415H170.57L176.852 21.0455H181.275L174.798 28.8608L181.352 38.5H176.937L172.156 31.3239L170.34 33.5398V38.5H166.65Z" fill="black"/>
</svg>
